<?xml version="1.0" encoding="UTF-8" standalone="no"?>
<!DOCTYPE svg PUBLIC "-//W3C//DTD SVG 1.1//EN" "http://www.w3.org/Graphics/SVG/1.1/DTD/svg11.dtd">
<!-- Generated by Microsoft Visio, SVG Export System_Overview_v2.svg Page-1 -->
<svg xmlns="http://www.w3.org/2000/svg" xmlns:xlink="http://www.w3.org/1999/xlink" xmlns:ev="http://www.w3.org/2001/xml-events"
		xmlns:v="http://schemas.microsoft.com/visio/2003/SVGExtensions/" width="2.46242in" height="2.74659in"
		viewBox="0 0 177.294 197.754" xml:space="preserve" color-interpolation-filters="sRGB" class="st18">
	<v:documentProperties v:langID="1033" v:viewMarkup="false"/>

	<style type="text/css">
	<![CDATA[
		.st1 {fill:#ff00ff;fill-opacity:0;stroke:#000000;stroke-linecap:round;stroke-linejoin:round;stroke-opacity:0;stroke-width:0.72}
		.st2 {fill:url(#grad0-7)}
		.st3 {stroke:#ffffff;stroke-linecap:round;stroke-linejoin:round;stroke-width:0.36}
		.st4 {fill:url(#grad11-12)}
		.st5 {stroke:#a78450;stroke-linecap:round;stroke-linejoin:round;stroke-width:0.36}
		.st6 {fill:url(#grad12-19);stroke:#ffffff;stroke-linecap:round;stroke-linejoin:round;stroke-width:0.36}
		.st7 {stroke:#000000;stroke-linecap:round;stroke-linejoin:round;stroke-width:1.5}
		.st8 {fill:url(#grad12-28);stroke:#000000;stroke-linecap:round;stroke-linejoin:round;stroke-width:0.36}
		.st9 {stroke:#000000;stroke-linecap:round;stroke-linejoin:round;stroke-width:0.6}
		.st10 {fill:#000000;stroke:#000000;stroke-linecap:round;stroke-linejoin:round;stroke-width:0.36}
		.st11 {fill:url(#grad8-44);stroke:#ffffff;stroke-linecap:round;stroke-linejoin:round;stroke-width:0.12}
		.st12 {fill:url(#grad10-49);stroke:none;stroke-linecap:round;stroke-linejoin:round;stroke-width:0.12}
		.st13 {fill:#000000;stroke:none;stroke-linecap:round;stroke-linejoin:round;stroke-width:0.24}
		.st14 {stroke:#000000;stroke-linecap:round;stroke-linejoin:round;stroke-width:0.36}
		.st15 {fill:#000000;font-family:Calibri;font-size:1.00001em;font-weight:bold}
		.st16 {font-size:1em;font-weight:normal}
		.st17 {font-size:1em;font-style:italic;font-weight:normal}
		.st18 {fill:none;fill-rule:evenodd;font-size:12px;overflow:visible;stroke-linecap:square;stroke-miterlimit:3}
	]]>
	</style>

	<defs id="Patterns_And_Gradients">
		<linearGradient id="grad0-7" x1="0" y1="0" x2="1" y2="0" gradientTransform="rotate(270 0.5 0.5)">
			<stop offset="0" stop-color="#ffffff" stop-opacity="1"/>
			<stop offset="1" stop-color="#e1d8c1" stop-opacity="1"/>
		</linearGradient>
		<pattern id="grad11-12" x="0" y="0" width="1" height="1" patternContentUnits="objectBoundingBox">
			<path d="M 0 1 L 0 0 L 1 0 z" style="fill:url(#grad0-13)"/>
			<path d="M 0 1 L 1 1 L 1 0 z" style="fill:url(#grad0-14)"/>
		</pattern>
		<linearGradient id="grad0-13" x1="0" y1="0" x2="1" y2="0" gradientTransform="rotate(180 0.5 0.5)">
			<stop offset="0" stop-color="#ffffff" stop-opacity="1"/>
			<stop offset="1" stop-color="#c9ba96" stop-opacity="1"/>
		</linearGradient>
		<linearGradient id="grad0-14" x1="0" y1="0" x2="1" y2="0" gradientTransform="rotate(90 0.5 0.5)">
			<stop offset="0" stop-color="#ffffff" stop-opacity="1"/>
			<stop offset="1" stop-color="#c9ba96" stop-opacity="1"/>
		</linearGradient>
		<pattern id="grad12-19" x="0" y="0" width="1" height="1" patternContentUnits="objectBoundingBox">
			<path d="M 0 0 L 0 1 L 1 1 z" style="fill:url(#grad0-20)"/>
			<path d="M 0 0 L 1 0 L 1 1 z" style="fill:url(#grad0-21)"/>
		</pattern>
		<linearGradient id="grad0-20" x1="0" y1="0" x2="1" y2="0" gradientTransform="rotate(90 0.5 0.5)">
			<stop offset="0" stop-color="#ffffff" stop-opacity="1"/>
			<stop offset="1" stop-color="#b6a06d" stop-opacity="1"/>
		</linearGradient>
		<linearGradient id="grad0-21" x1="0" y1="0" x2="1" y2="0" gradientTransform="rotate(360 0.5 0.5)">
			<stop offset="0" stop-color="#ffffff" stop-opacity="1"/>
			<stop offset="1" stop-color="#b6a06d" stop-opacity="1"/>
		</linearGradient>
		<pattern id="grad12-28" x="0" y="0" width="1" height="1" patternContentUnits="objectBoundingBox">
			<path d="M 0 0 L 0 1 L 1 1 z" style="fill:url(#grad0-29)"/>
			<path d="M 0 0 L 1 0 L 1 1 z" style="fill:url(#grad0-30)"/>
		</pattern>
		<linearGradient id="grad0-29" x1="0" y1="0" x2="1" y2="0" gradientTransform="rotate(90 0.5 0.5)">
			<stop offset="0" stop-color="#ffffff" stop-opacity="1"/>
			<stop offset="1" stop-color="#339966" stop-opacity="1"/>
		</linearGradient>
		<linearGradient id="grad0-30" x1="0" y1="0" x2="1" y2="0" gradientTransform="rotate(360 0.5 0.5)">
			<stop offset="0" stop-color="#ffffff" stop-opacity="1"/>
			<stop offset="1" stop-color="#339966" stop-opacity="1"/>
		</linearGradient>
		<linearGradient id="grad0-34" x1="0" y1="0" x2="1" y2="0" gradientTransform="rotate(270 0.5 0.5)">
			<stop offset="0" stop-color="#ffffff" stop-opacity="1"/>
			<stop offset="1" stop-color="#e7e4cd" stop-opacity="1"/>
		</linearGradient>
		<pattern id="grad8-44" x="0" y="0" width="1" height="1" patternContentUnits="objectBoundingBox">
			<path d="M 0 0 L 1 0 L 1 1 z" style="fill:url(#grad0-34)"/>
			<path d="M 0 0 L 0 1 L 1 1 z" style="fill:url(#grad0-45)"/>
		</pattern>
		<linearGradient id="grad0-45" x1="0" y1="0" x2="1" y2="0" gradientTransform="rotate(180 0.5 0.5)">
			<stop offset="0" stop-color="#ffffff" stop-opacity="1"/>
			<stop offset="1" stop-color="#e7e4cd" stop-opacity="1"/>
		</linearGradient>
		<pattern id="grad10-49" x="0" y="0" width="1" height="1" patternContentUnits="objectBoundingBox">
			<path d="M 0.5 0.5 L 0 0 L 0 1 z" style="fill:url(#grad0-50)"/>
			<path d="M 0.5 0.5 L 1 0 L 1 1 z" style="fill:url(#grad0-51)"/>
			<path d="M 0.5 0.5 L 0 0 L 1 0 z" style="fill:url(#grad0-52)"/>
			<path d="M 0.5 0.5 L 0 1 L 1 1 z" style="fill:url(#grad0-53)"/>
		</pattern>
		<linearGradient id="grad0-50" x1="0" y1="0" x2="1" y2="0" gradientTransform="rotate(180 0.5 0.5)">
			<stop offset="0" stop-color="#000000" stop-opacity="0.4"/>
			<stop offset="1" stop-color="#e7e4cd" stop-opacity="0.4"/>
		</linearGradient>
		<linearGradient id="grad0-51" x1="0" y1="0" x2="1" y2="0" gradientTransform="rotate(360 0.5 0.5)">
			<stop offset="0" stop-color="#000000" stop-opacity="0.4"/>
			<stop offset="1" stop-color="#e7e4cd" stop-opacity="0.4"/>
		</linearGradient>
		<linearGradient id="grad0-52" x1="0" y1="0" x2="1" y2="0" gradientTransform="rotate(270 0.5 0.5)">
			<stop offset="0" stop-color="#000000" stop-opacity="0.4"/>
			<stop offset="1" stop-color="#e7e4cd" stop-opacity="0.4"/>
		</linearGradient>
		<linearGradient id="grad0-53" x1="0" y1="0" x2="1" y2="0" gradientTransform="rotate(90 0.5 0.5)">
			<stop offset="0" stop-color="#000000" stop-opacity="0.4"/>
			<stop offset="1" stop-color="#e7e4cd" stop-opacity="0.4"/>
		</linearGradient>
	</defs>
	<g v:mID="0" v:index="1" v:groupContext="foregroundPage">
		<title>Page-1</title>
		<v:pageProperties v:drawingScale="1" v:pageScale="1" v:drawingUnits="0" v:shadowOffsetX="9" v:shadowOffsetY="-9"/>
		<g id="group61-1" transform="translate(47.6971,-80.0041)" v:mID="61" v:groupContext="group">
			<v:custProps>
				<v:cp v:nameU="Manufacturer" v:lbl="Manufacturer" v:type="0" v:sortKey="Equipment" v:invis="false" v:ask="false"
						v:langID="1033"/>
				<v:cp v:nameU="ProductNumber" v:lbl="Product Number" v:type="0" v:sortKey="Equipment" v:invis="false" v:ask="false"
						v:langID="1033"/>
				<v:cp v:nameU="PartNumber" v:lbl="Part Number" v:type="0" v:sortKey="Equipment" v:invis="false" v:ask="false"
						v:langID="1033"/>
				<v:cp v:nameU="ProductDescription" v:lbl="Product Description" v:type="0" v:sortKey="Equipment" v:invis="false"
						v:ask="false" v:langID="1033"/>
				<v:cp v:nameU="AssetNumber" v:lbl="Asset Number" v:type="0" v:sortKey="Asset" v:invis="false" v:ask="false"
						v:langID="1033"/>
				<v:cp v:nameU="SerialNumber" v:lbl="Serial Number" v:type="0" v:sortKey="Asset" v:invis="false" v:ask="false"
						v:langID="1033"/>
				<v:cp v:nameU="Location" v:lbl="Location" v:type="0" v:sortKey="Asset" v:invis="false" v:ask="false"
						v:langID="1033"/>
				<v:cp v:nameU="Building" v:lbl="Building" v:type="0" v:sortKey="Asset" v:invis="false" v:ask="false"
						v:langID="1033"/>
				<v:cp v:nameU="Room" v:lbl="Room" v:type="0" v:sortKey="Asset" v:invis="false" v:ask="false" v:langID="1033"/>
				<v:cp v:nameU="Department" v:lbl="Department" v:type="0" v:invis="false" v:ask="false" v:langID="1033"/>
				<v:cp v:nameU="NetworkName" v:lbl="Network Name" v:type="0" v:sortKey="Network" v:invis="false" v:ask="false"
						v:langID="1033"/>
				<v:cp v:nameU="IPAddress" v:lbl="IP Address" v:type="0" v:sortKey="Network" v:invis="false" v:ask="false"
						v:langID="1033"/>
				<v:cp v:nameU="SubnetMask" v:lbl="Subnet Mask" v:type="0" v:sortKey="Network" v:invis="false" v:ask="false"
						v:langID="1033"/>
				<v:cp v:nameU="AdminInterface" v:lbl="Administrative Interface" v:type="0" v:sortKey="Network" v:invis="false"
						v:ask="false" v:langID="1033"/>
				<v:cp v:nameU="NumberofPorts" v:lbl="Number of Ports" v:type="0" v:sortKey="Network" v:invis="false" v:ask="false"
						v:langID="1033"/>
				<v:cp v:nameU="CommunityString" v:lbl="Community String" v:type="0" v:sortKey="Network" v:invis="false"
						v:ask="false" v:langID="1033"/>
				<v:cp v:nameU="NetworkDescription" v:lbl="Network Description" v:type="0" v:sortKey="Network" v:invis="false"
						v:ask="false" v:langID="1033"/>
				<v:cp v:nameU="CPU" v:lbl="CPU" v:type="0" v:sortKey="Workstation" v:invis="false" v:ask="false" v:langID="1033"/>
				<v:cp v:nameU="Memory" v:lbl="Memory" v:type="0" v:sortKey="Workstation" v:invis="false" v:ask="false"
						v:langID="1033"/>
				<v:cp v:nameU="OperatingSystem" v:lbl="Operating System" v:type="0" v:sortKey="Workstation" v:invis="false"
						v:ask="false" v:langID="1033"/>
				<v:cp v:nameU="BelongsTo" v:lbl="Belongs To" v:type="0" v:invis="true" v:ask="false" v:langID="1033"/>
				<v:cp v:nameU="ShapeClass" v:lbl="ShapeClass" v:type="0" v:invis="true" v:ask="false" v:langID="1033"
						v:val="VT4(Equipment)"/>
				<v:cp v:nameU="ShapeType" v:lbl="ShapeType" v:type="0" v:invis="true" v:ask="false" v:langID="1033"
						v:val="VT4(Server)"/>
				<v:cp v:nameU="MACAddress" v:lbl="MAC Address" v:type="0" v:sortKey="Network" v:invis="false" v:ask="false"
						v:langID="1033"/>
				<v:cp v:nameU="HardDriveSize" v:lbl="Hard Drive Capacity" v:type="0" v:sortKey="Workstation" v:invis="false"
						v:ask="false" v:langID="1033"/>
			</v:custProps>
			<v:userDefs>
				<v:ud v:nameU="HasText" v:val="VT0(0):5"/>
				<v:ud v:nameU="ShapeClass" v:val="VT0(5):26"/>
				<v:ud v:nameU="ShapeType" v:val="VT0(24):26"/>
				<v:ud v:nameU="SolSH" v:val="VT15({BF0433D9-CD73-4EB5-8390-8653BE590246}):41"/>
				<v:ud v:nameU="visLegendShape" v:val="VT0(2):26"/>
				<v:ud v:nameU="visVersion" v:prompt="" v:val="VT0(15):26"/>
				<v:ud v:nameU="HasText" v:prompt="" v:val="VT0(1):5"/>
				<v:ud v:nameU="visIsConnected" v:prompt="" v:val="VT0(0):26"/>
			</v:userDefs>
			<title>Server.61</title>
			<desc>Elastic Stack Federated Security Module (FSM) Logging Server ...</desc>
			<g id="shape62-2" v:mID="62" v:groupContext="shape">
				<title>Sheet.62</title>
				<path d="M81.9 98.1 L50.4 80.76 L0 109 L0.02 181.53 A53.0288 50.9368 -180 0 0 31.1 197.75 L81.9 169.51 L81.9 98.1
							 ZM13.98 120.29 A54.7268 52.5678 -180 0 0 31.1 126.55 A54.1156 51.9806 0 0 1 13.98 120.29 Z"
						class="st1"/>
			</g>
			<g id="shape63-4" v:mID="63" v:groupContext="shape" transform="translate(0,-71.2068)">
				<title>Sheet.63</title>
				<path d="M31.08 197.75 L81.9 169.31 L50.4 151.96 L0 180.2 A54.7268 52.5678 -180 0 0 31.1 197.75 L31.08 197.75 Z"
						class="st2"/>
				<path d="M31.08 197.75 L81.9 169.31 L50.4 151.96 L0 180.2 A54.7268 52.5678 -180 0 0 31.1 197.75" class="st3"/>
			</g>
			<g id="shape64-9" v:mID="64" v:groupContext="shape" transform="translate(0.0186096,-5.68434E-013)">
				<title>Sheet.64</title>
				<path d="M31.08 126.55 A54.1156 51.9806 0 0 1 -0 108.92 L0 181.53 A53.0288 50.9368 -180 0 0 31.08 197.75 L31.06 126.55
							 L31.08 126.55 Z" class="st4"/>
				<path d="M31.08 126.55 A54.1156 51.9806 0 0 1 -0 108.92 L0 181.53 A53.0288 50.9368 -180 0 0 31.08 197.75 L31.06 126.55"
						class="st5"/>
			</g>
			<g id="shape65-16" v:mID="65" v:groupContext="shape" transform="translate(31.08,-0.0804792)">
				<title>Sheet.65</title>
				<path d="M0 126.63 L0 197.75 L50.82 169.59 L50.82 98.18 L0 126.63 Z" class="st6"/>
			</g>
			<g id="shape66-22" v:mID="66" v:groupContext="shape" transform="translate(0,-0.00257909)">
				<title>Sheet.66</title>
				<path d="M81.9 98.1 L50.4 80.76 L0 109 L0.02 181.53 A53.0288 50.9368 -180 0 0 31.1 197.75 L81.9 169.51 L81.9 98.1"
						class="st7"/>
			</g>
			<g id="shape67-25" v:mID="67" v:groupContext="shape" transform="translate(-54.4411,-25.7172) rotate(-20)">
				<title>Sheet.67</title>
				<ellipse cx="2.38645" cy="194.434" rx="2.38645" ry="3.32048" class="st8"/>
			</g>
			<g id="shape68-31" v:mID="68" v:groupContext="shape" transform="translate(5.04,-10.2901)">
				<title>Sheet.68</title>
				<path d="M0 177.99 A62.4247 55.4607 -94.91 0 0 21 189.08" class="st9"/>
				<path d="M0 182.32 A62.4247 55.4607 -94.91 0 0 21 193.42" class="st9"/>
				<path d="M-0 186.66 A62.4247 55.4607 -94.91 0 0 21 197.75" class="st9"/>
			</g>
			<g id="group69-38" transform="translate(4.2,-50.4314)" v:mID="69" v:groupContext="group">
				<title>Sheet.69</title>
				<g id="shape70-39" v:mID="70" v:groupContext="shape" transform="translate(0,-11.6719)">
					<title>Sheet.70</title>
					<path d="M0.75 186.66 A52.9666 50.877 -180 0 0 21.75 197.75 A1.07625 1.03379 -180 0 0 21.75 195.74 A51.5255 49.4927
								 0 0 1 1.17 184.97 a0.697251 0.669744 -180 0 0 -1.16405 0.569361 A1.51963 1.45968 -180 0 0 0.75 186.66
								 Z" class="st10"/>
				</g>
				<g id="shape71-41" v:mID="71" v:groupContext="shape" transform="translate(6.67868,-14.2145)">
					<title>Sheet.71</title>
					<path d="M6.46 197.67 A8.09494 4.79106 -90.85 0 0 0.16 194.44 A5.17816 2.65541 -180 0 0 6.46 197.67 Z"
							class="st11"/>
				</g>
				<g id="shape72-46" v:mID="72" v:groupContext="shape" transform="translate(0.84,-0.100858)">
					<title>Sheet.72</title>
					<path d="M0 181.01 L0 186.66 A56.976 54.7282 -180 0 0 21 197.75 L21 192.11 A58.8407 56.5194 0 0 1 -0 181.01 Z"
							class="st12"/>
				</g>
				<g id="shape73-54" v:mID="73" v:groupContext="shape" transform="translate(0.84,-3.22744)">
					<title>Sheet.73</title>
					<path d="M0 186.66 A51.5697 49.5352 -180 0 0 21 197.75 L21 196.34 A56.9989 54.7502 0 0 1 0 185.25 L0 186.66 Z"
							class="st13"/>
				</g>
				<g id="shape74-56" v:mID="74" v:groupContext="shape" transform="translate(0.84,-0.201715)">
					<title>Sheet.74</title>
					<path d="M0 181.01 L0 186.66 A56.976 54.7282 -180 0 0 21 197.75" class="st3"/>
				</g>
				<g id="shape75-59" v:mID="75" v:groupContext="shape" transform="translate(0.84,1.42109E-013)">
					<title>Sheet.75</title>
					<path d="M21 197.75 L21 192.11 A58.8407 56.5194 0 0 1 -0 181.01" class="st14"/>
				</g>
			</g>
			<g id="shape61-63" v:mID="61" v:groupContext="groupContent">
				<v:textBlock v:margins="rect(4,4,4,4)"/>
				<v:textRect cx="40.95" cy="237.756" width="177.3" height="80.0041"/>
				<text x="10.5" y="212.56" class="st15" v:langID="1033"><v:paragraph v:horizAlign="1"/><v:tabList/>Elastic Stack<v:newlineChar/><tspan
							x="-40.98" dy="1.2em" class="st16">Federated Security Module </tspan><tspan class="st16">(</tspan><tspan
							class="st16">FSM</tspan><tspan class="st16">) <v:newlineChar/></tspan><tspan x="5.28" dy="1.2em"
							class="st16">Logging Server<v:newlineChar/></tspan><tspan x="18.39" dy="1.2em" class="st16">runs on…<v:newlineChar/></tspan><tspan
							x="27.31" dy="1.2em" class="st17">fmsrv</tspan></text>			</g>
		</g>
	</g>
</svg>
