<?xml version="1.0" encoding="UTF-8" standalone="no"?>
<!DOCTYPE svg PUBLIC "-//W3C//DTD SVG 1.1//EN" "http://www.w3.org/Graphics/SVG/1.1/DTD/svg11.dtd">
<!-- Generated by Microsoft Visio, SVG Export System Overview_v2.svg Page-1 -->
<svg xmlns="http://www.w3.org/2000/svg" xmlns:xlink="http://www.w3.org/1999/xlink" xmlns:ev="http://www.w3.org/2001/xml-events"
		width="11.5322in" height="10.991in" viewBox="0 0 830.319 791.354" xml:space="preserve" color-interpolation-filters="sRGB"
		class="st50">
	<style type="text/css">
	<![CDATA[
		.st1 {fill:#ff00ff;fill-opacity:0;stroke:#000000;stroke-linecap:round;stroke-linejoin:round;stroke-opacity:0;stroke-width:0.72}
		.st2 {fill:url(#grad0-7)}
		.st3 {stroke:#ffffff;stroke-linecap:round;stroke-linejoin:round;stroke-width:0.36}
		.st4 {fill:url(#grad11-12)}
		.st5 {stroke:#a78450;stroke-linecap:round;stroke-linejoin:round;stroke-width:0.36}
		.st6 {fill:url(#grad12-19);stroke:#ffffff;stroke-linecap:round;stroke-linejoin:round;stroke-width:0.36}
		.st7 {stroke:#000000;stroke-linecap:round;stroke-linejoin:round;stroke-width:1.5}
		.st8 {fill:url(#grad12-28);stroke:#000000;stroke-linecap:round;stroke-linejoin:round;stroke-width:0.36}
		.st9 {stroke:#000000;stroke-linecap:round;stroke-linejoin:round;stroke-width:0.6}
		.st10 {fill:#000000;stroke:#000000;stroke-linecap:round;stroke-linejoin:round;stroke-width:0.36}
		.st11 {fill:url(#grad8-44);stroke:#ffffff;stroke-linecap:round;stroke-linejoin:round;stroke-width:0.12}
		.st12 {fill:url(#grad10-49);stroke:none;stroke-linecap:round;stroke-linejoin:round;stroke-width:0.12}
		.st13 {fill:#000000;stroke:none;stroke-linecap:round;stroke-linejoin:round;stroke-width:0.24}
		.st14 {stroke:#000000;stroke-linecap:round;stroke-linejoin:round;stroke-width:0.36}
		.st15 {fill:#000000;font-family:Calibri;font-size:1.00001em;font-weight:bold}
		.st16 {font-size:1em;font-weight:normal}
		.st17 {font-size:1em;font-style:italic;font-weight:normal}
		.st18 {fill:url(#grad12-78);stroke:#ffffff;stroke-linecap:round;stroke-linejoin:round;stroke-width:0.72}
		.st19 {fill:url(#grad0-87);stroke:#ffffff;stroke-linecap:round;stroke-linejoin:round;stroke-width:0.72}
		.st20 {fill:url(#grad11-94);stroke:#000000;stroke-linecap:round;stroke-linejoin:round;stroke-width:0.72}
		.st21 {stroke:#ffffff;stroke-linecap:round;stroke-linejoin:round;stroke-width:0.72}
		.st22 {stroke:#000000;stroke-linecap:round;stroke-linejoin:round;stroke-width:0.72}
		.st23 {fill:url(#grad10-110);stroke:#000000;stroke-linecap:round;stroke-linejoin:round;stroke-width:0.72}
		.st24 {fill:#ffffff;stroke:none;stroke-linecap:round;stroke-linejoin:round;stroke-width:0.24}
		.st25 {fill:#969696;fill-opacity:0.3;stroke:none;stroke-linecap:round;stroke-linejoin:round;stroke-width:0.72}
		.st26 {fill:none;stroke:#000000;stroke-linecap:round;stroke-linejoin:round;stroke-width:1.5}
		.st27 {fill:url(#grad7-142);stroke:#000000;stroke-linecap:round;stroke-linejoin:round;stroke-width:0.72}
		.st28 {stroke:#ffffff;stroke-linecap:round;stroke-linejoin:round;stroke-width:1.2}
		.st29 {fill:#000000;fill-opacity:0.2;stroke:#000000;stroke-linecap:round;stroke-linejoin:round;stroke-width:0.24}
		.st30 {fill:url(#grad11-94);stroke:#000000;stroke-linecap:round;stroke-linejoin:round;stroke-width:0.24}
		.st31 {stroke:#ffff00;stroke-linecap:round;stroke-linejoin:round;stroke-width:0.24}
		.st32 {fill:#969696;stroke:none;stroke-linecap:round;stroke-linejoin:round;stroke-width:0.24}
		.st33 {fill:#ff00ff;fill-opacity:0}
		.st34 {stroke:#000000;stroke-linecap:round;stroke-linejoin:round;stroke-opacity:0;stroke-width:0.72}
		.st35 {fill:url(#grad3-410)}
		.st36 {stroke:#373773;stroke-linecap:round;stroke-linejoin:round;stroke-width:0.72}
		.st37 {fill:url(#grad3-410);stroke:#555555;stroke-linecap:round;stroke-linejoin:round;stroke-width:0.72}
		.st38 {stroke:#555555;stroke-linecap:round;stroke-linejoin:round;stroke-width:0.72}
		.st39 {stroke:#000000;stroke-linecap:round;stroke-linejoin:round;stroke-width:2}
		.st40 {fill:#000000;font-family:Calibri;font-size:1.00001em}
		.st41 {stroke:#000000;stroke-dasharray:5.25,3.75;stroke-linecap:round;stroke-linejoin:round;stroke-width:0.75}
		.st42 {fill:url(#grad0-471);stroke:#000000;stroke-linecap:round;stroke-linejoin:round;stroke-width:0.72}
		.st43 {stroke:#000000;stroke-linecap:round;stroke-linejoin:round;stroke-width:0.75}
		.st44 {fill:#ffffff;stroke:#000000;stroke-linecap:round;stroke-linejoin:round;stroke-width:0.24}
		.st45 {fill:#ffffff;stroke:#000000;stroke-linecap:round;stroke-linejoin:round;stroke-width:0.75}
		.st46 {fill:#000000}
		.st47 {fill:#4d1e1a;font-family:Calibri;font-size:1.00001em}
		.st48 {font-size:1em}
		.st49 {fill:#ffffff;stroke:#000000;stroke-linecap:round;stroke-linejoin:round;stroke-width:3.12}
		.st50 {fill:none;fill-rule:evenodd;font-size:12px;overflow:visible;stroke-linecap:square;stroke-miterlimit:3}
	]]>
	</style>

	<defs id="Patterns_And_Gradients">
		<linearGradient id="grad0-7" x1="0" y1="0" x2="1" y2="0" gradientTransform="rotate(270 0.5 0.5)">
			<stop offset="0" stop-color="#ffffff" stop-opacity="1"/>
			<stop offset="1" stop-color="#e1d8c1" stop-opacity="1"/>
		</linearGradient>
		<pattern id="grad11-12" x="0" y="0" width="1" height="1" patternContentUnits="objectBoundingBox">
			<path d="M 0 1 L 0 0 L 1 0 z" style="fill:url(#grad0-13)"/>
			<path d="M 0 1 L 1 1 L 1 0 z" style="fill:url(#grad0-14)"/>
		</pattern>
		<linearGradient id="grad0-13" x1="0" y1="0" x2="1" y2="0" gradientTransform="rotate(180 0.5 0.5)">
			<stop offset="0" stop-color="#ffffff" stop-opacity="1"/>
			<stop offset="1" stop-color="#c9ba96" stop-opacity="1"/>
		</linearGradient>
		<linearGradient id="grad0-14" x1="0" y1="0" x2="1" y2="0" gradientTransform="rotate(90 0.5 0.5)">
			<stop offset="0" stop-color="#ffffff" stop-opacity="1"/>
			<stop offset="1" stop-color="#c9ba96" stop-opacity="1"/>
		</linearGradient>
		<pattern id="grad12-19" x="0" y="0" width="1" height="1" patternContentUnits="objectBoundingBox">
			<path d="M 0 0 L 0 1 L 1 1 z" style="fill:url(#grad0-20)"/>
			<path d="M 0 0 L 1 0 L 1 1 z" style="fill:url(#grad0-21)"/>
		</pattern>
		<linearGradient id="grad0-20" x1="0" y1="0" x2="1" y2="0" gradientTransform="rotate(90 0.5 0.5)">
			<stop offset="0" stop-color="#ffffff" stop-opacity="1"/>
			<stop offset="1" stop-color="#b6a06d" stop-opacity="1"/>
		</linearGradient>
		<linearGradient id="grad0-21" x1="0" y1="0" x2="1" y2="0" gradientTransform="rotate(360 0.5 0.5)">
			<stop offset="0" stop-color="#ffffff" stop-opacity="1"/>
			<stop offset="1" stop-color="#b6a06d" stop-opacity="1"/>
		</linearGradient>
		<pattern id="grad12-28" x="0" y="0" width="1" height="1" patternContentUnits="objectBoundingBox">
			<path d="M 0 0 L 0 1 L 1 1 z" style="fill:url(#grad0-29)"/>
			<path d="M 0 0 L 1 0 L 1 1 z" style="fill:url(#grad0-30)"/>
		</pattern>
		<linearGradient id="grad0-29" x1="0" y1="0" x2="1" y2="0" gradientTransform="rotate(90 0.5 0.5)">
			<stop offset="0" stop-color="#ffffff" stop-opacity="1"/>
			<stop offset="1" stop-color="#339966" stop-opacity="1"/>
		</linearGradient>
		<linearGradient id="grad0-30" x1="0" y1="0" x2="1" y2="0" gradientTransform="rotate(360 0.5 0.5)">
			<stop offset="0" stop-color="#ffffff" stop-opacity="1"/>
			<stop offset="1" stop-color="#339966" stop-opacity="1"/>
		</linearGradient>
		<linearGradient id="grad0-34" x1="0" y1="0" x2="1" y2="0" gradientTransform="rotate(270 0.5 0.5)">
			<stop offset="0" stop-color="#ffffff" stop-opacity="1"/>
			<stop offset="1" stop-color="#e7e4cd" stop-opacity="1"/>
		</linearGradient>
		<pattern id="grad8-44" x="0" y="0" width="1" height="1" patternContentUnits="objectBoundingBox">
			<path d="M 0 0 L 1 0 L 1 1 z" style="fill:url(#grad0-34)"/>
			<path d="M 0 0 L 0 1 L 1 1 z" style="fill:url(#grad0-45)"/>
		</pattern>
		<linearGradient id="grad0-45" x1="0" y1="0" x2="1" y2="0" gradientTransform="rotate(180 0.5 0.5)">
			<stop offset="0" stop-color="#ffffff" stop-opacity="1"/>
			<stop offset="1" stop-color="#e7e4cd" stop-opacity="1"/>
		</linearGradient>
		<pattern id="grad10-49" x="0" y="0" width="1" height="1" patternContentUnits="objectBoundingBox">
			<path d="M 0.5 0.5 L 0 0 L 0 1 z" style="fill:url(#grad0-50)"/>
			<path d="M 0.5 0.5 L 1 0 L 1 1 z" style="fill:url(#grad0-51)"/>
			<path d="M 0.5 0.5 L 0 0 L 1 0 z" style="fill:url(#grad0-52)"/>
			<path d="M 0.5 0.5 L 0 1 L 1 1 z" style="fill:url(#grad0-53)"/>
		</pattern>
		<linearGradient id="grad0-50" x1="0" y1="0" x2="1" y2="0" gradientTransform="rotate(180 0.5 0.5)">
			<stop offset="0" stop-color="#000000" stop-opacity="0.4"/>
			<stop offset="1" stop-color="#e7e4cd" stop-opacity="0.4"/>
		</linearGradient>
		<linearGradient id="grad0-51" x1="0" y1="0" x2="1" y2="0" gradientTransform="rotate(360 0.5 0.5)">
			<stop offset="0" stop-color="#000000" stop-opacity="0.4"/>
			<stop offset="1" stop-color="#e7e4cd" stop-opacity="0.4"/>
		</linearGradient>
		<linearGradient id="grad0-52" x1="0" y1="0" x2="1" y2="0" gradientTransform="rotate(270 0.5 0.5)">
			<stop offset="0" stop-color="#000000" stop-opacity="0.4"/>
			<stop offset="1" stop-color="#e7e4cd" stop-opacity="0.4"/>
		</linearGradient>
		<linearGradient id="grad0-53" x1="0" y1="0" x2="1" y2="0" gradientTransform="rotate(90 0.5 0.5)">
			<stop offset="0" stop-color="#000000" stop-opacity="0.4"/>
			<stop offset="1" stop-color="#e7e4cd" stop-opacity="0.4"/>
		</linearGradient>
		<pattern id="grad12-78" x="0" y="0" width="1" height="1" patternContentUnits="objectBoundingBox">
			<path d="M 0 0 L 0 1 L 1 1 z" style="fill:url(#grad0-79)"/>
			<path d="M 0 0 L 1 0 L 1 1 z" style="fill:url(#grad0-80)"/>
		</pattern>
		<linearGradient id="grad0-79" x1="0" y1="0" x2="1" y2="0" gradientTransform="rotate(90 0.5 0.5)">
			<stop offset="0" stop-color="#ffffff" stop-opacity="1"/>
			<stop offset="1" stop-color="#a7a7a7" stop-opacity="1"/>
		</linearGradient>
		<linearGradient id="grad0-80" x1="0" y1="0" x2="1" y2="0" gradientTransform="rotate(360 0.5 0.5)">
			<stop offset="0" stop-color="#ffffff" stop-opacity="1"/>
			<stop offset="1" stop-color="#a7a7a7" stop-opacity="1"/>
		</linearGradient>
		<linearGradient id="grad0-87" x1="0" y1="0" x2="1" y2="0" gradientTransform="rotate(270 0.5 0.5)">
			<stop offset="0" stop-color="#ffffff" stop-opacity="1"/>
			<stop offset="1" stop-color="#dfdfdf" stop-opacity="1"/>
		</linearGradient>
		<pattern id="grad11-94" x="0" y="0" width="1" height="1" patternContentUnits="objectBoundingBox">
			<path d="M 0 1 L 0 0 L 1 0 z" style="fill:url(#grad0-95)"/>
			<path d="M 0 1 L 1 1 L 1 0 z" style="fill:url(#grad0-96)"/>
		</pattern>
		<linearGradient id="grad0-95" x1="0" y1="0" x2="1" y2="0" gradientTransform="rotate(180 0.5 0.5)">
			<stop offset="0" stop-color="#ffffff" stop-opacity="1"/>
			<stop offset="1" stop-color="#c0c0c0" stop-opacity="1"/>
		</linearGradient>
		<linearGradient id="grad0-96" x1="0" y1="0" x2="1" y2="0" gradientTransform="rotate(90 0.5 0.5)">
			<stop offset="0" stop-color="#ffffff" stop-opacity="1"/>
			<stop offset="1" stop-color="#c0c0c0" stop-opacity="1"/>
		</linearGradient>
		<pattern id="grad10-110" x="0" y="0" width="1" height="1" patternContentUnits="objectBoundingBox">
			<path d="M 0.5 0.5 L 0 0 L 0 1 z" style="fill:url(#grad0-111)"/>
			<path d="M 0.5 0.5 L 1 0 L 1 1 z" style="fill:url(#grad0-112)"/>
			<path d="M 0.5 0.5 L 0 0 L 1 0 z" style="fill:url(#grad0-113)"/>
			<path d="M 0.5 0.5 L 0 1 L 1 1 z" style="fill:url(#grad0-114)"/>
		</pattern>
		<linearGradient id="grad0-111" x1="0" y1="0" x2="1" y2="0" gradientTransform="rotate(180 0.5 0.5)">
			<stop offset="0" stop-color="#ffffff" stop-opacity="1"/>
			<stop offset="1" stop-color="#c6d1e3" stop-opacity="1"/>
		</linearGradient>
		<linearGradient id="grad0-112" x1="0" y1="0" x2="1" y2="0" gradientTransform="rotate(360 0.5 0.5)">
			<stop offset="0" stop-color="#ffffff" stop-opacity="1"/>
			<stop offset="1" stop-color="#c6d1e3" stop-opacity="1"/>
		</linearGradient>
		<linearGradient id="grad0-113" x1="0" y1="0" x2="1" y2="0" gradientTransform="rotate(270 0.5 0.5)">
			<stop offset="0" stop-color="#ffffff" stop-opacity="1"/>
			<stop offset="1" stop-color="#c6d1e3" stop-opacity="1"/>
		</linearGradient>
		<linearGradient id="grad0-114" x1="0" y1="0" x2="1" y2="0" gradientTransform="rotate(90 0.5 0.5)">
			<stop offset="0" stop-color="#ffffff" stop-opacity="1"/>
			<stop offset="1" stop-color="#c6d1e3" stop-opacity="1"/>
		</linearGradient>
		<radialGradient id="grad7-142" cx="0" cy="0" r="1.4">
			<stop offset="0" stop-color="#ffffff" stop-opacity="1"/>
			<stop offset="1" stop-color="#99cc00" stop-opacity="1"/>
		</radialGradient>
		<radialGradient id="grad3-410" cx="0.5" cy="0.5" r="0.73">
			<stop offset="0" stop-color="#c6d1e3" stop-opacity="1"/>
			<stop offset="1" stop-color="#4e8ec2" stop-opacity="1"/>
		</radialGradient>
		<linearGradient id="grad0-471" x1="0" y1="0" x2="1" y2="0" gradientTransform="rotate(180 0.5 0.5)">
			<stop offset="0.01" stop-color="#c0c0c0" stop-opacity="1"/>
			<stop offset="0.5" stop-color="#ffffff" stop-opacity="1"/>
			<stop offset="1" stop-color="#c0c0c0" stop-opacity="1"/>
		</linearGradient>
	</defs>
	<g>
		<title>Page-1</title>
		<g id="group61-1" transform="translate(164.868,-333.09)">
			<title>Server.61</title>
			<desc>Elastic Stack Federated Security Module (FSM) Logging Serve r...</desc>
			<g id="shape62-2">
				<title>Sheet.62</title>
				<path d="M81.9 691.7 L50.4 674.36 L0 702.6 L0.02 775.13 A53.0288 50.9368 -180 0 0 31.1 791.35 L81.9 763.11 L81.9
							 691.7 ZM13.98 713.89 A54.7268 52.5678 -180 0 0 31.1 720.15 A54.1156 51.9806 0 0 1 13.98 713.89 Z"
						class="st1"/>
			</g>
			<g id="shape63-4" transform="translate(0,-71.2068)">
				<title>Sheet.63</title>
				<path d="M31.08 791.35 L81.9 762.91 L50.4 745.56 L0 773.8 A54.7268 52.5678 -180 0 0 31.1 791.35 L31.08 791.35 Z"
						class="st2"/>
				<path d="M31.08 791.35 L81.9 762.91 L50.4 745.56 L0 773.8 A54.7268 52.5678 -180 0 0 31.1 791.35" class="st3"/>
			</g>
			<g id="shape64-9" transform="translate(0.0186096,-6.82121E-013)">
				<title>Sheet.64</title>
				<path d="M31.08 720.15 A54.1156 51.9806 0 0 1 -0 702.51 L0 775.13 A53.0288 50.9368 -180 0 0 31.08 791.35 L31.06 720.15
							 L31.08 720.15 Z" class="st4"/>
				<path d="M31.08 720.15 A54.1156 51.9806 0 0 1 -0 702.51 L0 775.13 A53.0288 50.9368 -180 0 0 31.08 791.35 L31.06 720.15"
						class="st5"/>
			</g>
			<g id="shape65-16" transform="translate(31.08,-0.0804792)">
				<title>Sheet.65</title>
				<path d="M0 720.23 L0 791.35 L50.82 763.19 L50.82 691.78 L0 720.23 Z" class="st6"/>
			</g>
			<g id="shape66-22" transform="translate(0,-0.00257909)">
				<title>Sheet.66</title>
				<path d="M81.9 691.7 L50.4 674.36 L0 702.6 L0.02 775.13 A53.0288 50.9368 -180 0 0 31.1 791.35 L81.9 763.11 L81.9
							 691.7" class="st7"/>
			</g>
			<g id="shape67-25" transform="translate(-257.464,10.0812) rotate(-20)">
				<title>Sheet.67</title>
				<ellipse cx="2.38645" cy="788.033" rx="2.38645" ry="3.32048" class="st8"/>
			</g>
			<g id="shape68-31" transform="translate(5.04,-10.2901)">
				<title>Sheet.68</title>
				<path d="M0 771.59 A62.4247 55.4607 -94.91 0 0 21 782.68" class="st9"/>
				<path d="M0 775.92 A62.4247 55.4607 -94.91 0 0 21 787.02" class="st9"/>
				<path d="M-0 780.26 A62.4247 55.4607 -94.91 0 0 21 791.35" class="st9"/>
			</g>
			<g id="group69-38" transform="translate(4.2,-50.4314)">
				<title>Sheet.69</title>
				<g id="shape70-39" transform="translate(0,-11.6719)">
					<title>Sheet.70</title>
					<path d="M0.75 780.26 A52.9666 50.877 -180 0 0 21.75 791.35 A1.07625 1.03379 -180 0 0 21.75 789.34 A51.5255 49.4927
								 0 0 1 1.17 778.57 a0.697251 0.669744 -180 0 0 -1.16405 0.569361 A1.51963 1.45968 -180 0 0 0.75 780.26
								 Z" class="st10"/>
				</g>
				<g id="shape71-41" transform="translate(6.67868,-14.2145)">
					<title>Sheet.71</title>
					<path d="M6.46 791.27 A8.09494 4.79106 -90.85 0 0 0.16 788.04 A5.17816 2.65541 -180 0 0 6.46 791.27 Z"
							class="st11"/>
				</g>
				<g id="shape72-46" transform="translate(0.84,-0.100858)">
					<title>Sheet.72</title>
					<path d="M0 774.61 L0 780.26 A56.976 54.7282 -180 0 0 21 791.35 L21 785.71 A58.8407 56.5194 0 0 1 -0 774.61 Z"
							class="st12"/>
				</g>
				<g id="shape73-54" transform="translate(0.84,-3.22744)">
					<title>Sheet.73</title>
					<path d="M0 780.26 A51.5697 49.5352 -180 0 0 21 791.35 L21 789.94 A56.9989 54.7502 0 0 1 0 778.85 L0 780.26 Z"
							class="st13"/>
				</g>
				<g id="shape74-56" transform="translate(0.84,-0.201715)">
					<title>Sheet.74</title>
					<path d="M0 774.61 L0 780.26 A56.976 54.7282 -180 0 0 21 791.35" class="st3"/>
				</g>
				<g id="shape75-59" transform="translate(0.84,1.13687E-013)">
					<title>Sheet.75</title>
					<path d="M21 791.35 L21 785.71 A58.8407 56.5194 0 0 1 -0 774.61" class="st14"/>
				</g>
			</g>
			<g id="shape61-63">
				<text x="10.5" y="806.16" class="st15">Elastic Stack <tspan x="-40.98" dy="1.2em" class="st16">Federated Security Module </tspan><tspan
							class="st16">(</tspan><tspan class="st16">FSM</tspan><tspan class="st16">)  </tspan><tspan x="7.38"
							dy="1.2em" class="st16">Logging Serve </tspan><tspan x="18.39" dy="1.2em" class="st16">runs on… </tspan><tspan
							x="27.31" dy="1.2em" class="st17">fmsrv</tspan></text>			</g>
		</g>
		<g id="group124-72" transform="translate(253.068,-121.59)">
			<title>Laptop computer</title>
			<g id="shape125-73">
				<title>Sheet.125</title>
				<path d="M117 712.96 L57.03 678.37 L51.88 678.37 L51.82 678.56 L37.67 726.3 L0 748.06 L0 756.25 A141.061 138.916
							 -90.05 0 0 60.22 791.35 L100.62 767.95 L117 712.96 Z" class="st1"/>
			</g>
			<g id="shape126-75" transform="translate(60.2204,0)">
				<title>Sheet.126</title>
				<path d="M0.03 782.58 L43.32 757.42 L40.4 767.95 L0 791.35 L0.03 782.58 Z" class="st18"/>
			</g>
			<g id="shape127-81" transform="translate(97.6457,-30.4592)">
				<title>Sheet.127</title>
				<path d="M0 791.35 L14.21 743.42 L19.35 743.42 L5.9 787.88 L0 791.35 Z" class="st18"/>
			</g>
			<g id="shape128-84" transform="translate(51.714,-78.39)">
				<title>Sheet.128</title>
				<path d="M0 756.96 L5.31 756.76 L65.29 791.35 L60.14 791.35 A2593.82 2554.36 87.95 0 1 -0 756.96 Z" class="st19"/>
			</g>
			<g id="shape129-88" transform="translate(0,-8.775)">
				<title>Sheet.129</title>
				<path d="M0 756.84 L37.67 735.08 L97.65 769.67 L60.26 791.35 A156.956 154.568 89.17 0 1 0 756.84 Z" class="st19"/>
			</g>
			<g id="shape130-91" transform="translate(37.674,-30.4592)">
				<title>Sheet.130</title>
				<path d="M59.97 791.35 A8192.78 8068.15 -91.15 0 0 0 756.76 L14.21 708.83 L74.18 743.42 L59.97 791.35 Z"
						class="st20"/>
			</g>
			<g id="shape131-97">
				<title>Sheet.131</title>
				<path d="M-0 756.25 A141.061 138.916 -90.05 0 0 60.22 791.35 L60.25 782.58 A156.924 154.537 88.88 0 1 0 748.06 L0
							 756.25 Z" class="st20"/>
			</g>
			<g id="shape132-100" transform="translate(42.12,-35.3925)">
				<title>Sheet.132</title>
				<path d="M12.4 719.4 L0 760.82 L53.12 791.35" class="st21"/>
			</g>
			<g id="shape133-103" transform="translate(89.505,-2.106) scale(-1,1)">
				<title>Sheet.133</title>
				<path d="M0 771.23 L25.86 786.21 L25.86 791.35" class="st22"/>
			</g>
			<g id="shape134-107" transform="translate(43.758,-35.3925)">
				<title>Sheet.134</title>
				<path d="M0 760.35 L11.93 720.1 L10.76 719.4 A2306.12 2271.04 89.01 0 1 63.65 749.94 L51.48 791.35 L51.71 790.18
							 A2033.72 2002.78 88.95 0 1 0 760.35 Z" class="st23"/>
			</g>
			<g id="group135-115" transform="translate(8.47235,-12.493)">
				<title>Sheet.135</title>
				<g id="shape136-116" transform="translate(0,-1.17)">
					<title>Sheet.136</title>
					<path d="M0 760.14 L5.41 763.26 L10.49 760.32 L5.09 757.2 L0 760.14 ZM7.63 755.73 L13.03 758.86 L18.12 755.92
								 L12.71 752.8 L7.63 755.73 ZM15.26 751.33 L20.66 754.45 L25.75 751.52 L20.34 748.39 L15.26 751.33
								 ZM22.88 746.93 L28.29 750.05 L33.38 747.11 L27.97 743.99 L22.88 746.93 ZM30.99 751.61 L36.4 754.73
								 L41.49 751.79 L36.08 748.67 L30.99 751.61 ZM39.1 756.29 L44.51 759.41 L49.6 756.48 L44.19 753.36
								 L39.1 756.29 ZM47.21 760.97 L52.62 764.09 L57.71 761.16 L52.3 758.04 L47.21 760.97 ZM63.43 770.34
								 L68.84 773.46 L73.93 770.52 L68.52 767.4 L63.43 770.34 ZM71.54 775.02 L76.95 778.14 L82.04 775.21
								 L76.63 772.08 L71.54 775.02 ZM63.92 779.42 L69.32 782.55 L74.41 779.61 L69 776.49 L63.92 779.42
								 ZM55.81 774.74 L61.21 777.86 L66.3 774.93 L60.89 771.81 L55.81 774.74 ZM55.32 765.66 L60.73 768.78
								 L65.82 765.84 L60.41 762.72 L55.32 765.66 ZM47.7 770.06 L53.1 773.18 L58.19 770.25 L52.78 767.12
								 L47.7 770.06 ZM39.59 765.38 L44.99 768.5 L50.08 765.56 L44.67 762.44 L39.59 765.38 ZM31.48 760.7
								 L36.88 763.82 L41.97 760.88 L36.56 757.76 L31.48 760.7 ZM23.37 756.01 L28.77 759.13 L33.86 756.2
								 L28.45 753.08 L23.37 756.01 ZM15.74 760.42 L21.14 763.54 L26.23 760.6 L20.82 757.48 L15.74 760.42
								 ZM23.85 765.1 L29.25 768.22 L34.34 765.28 L28.93 762.16 L23.85 765.1 ZM31.96 769.78 L37.36 772.9
								 L42.45 769.97 L37.04 766.85 L31.96 769.78 ZM40.07 774.46 L45.47 777.59 L50.56 774.65 L45.15 771.53
								 L40.07 774.46 ZM48.18 779.15 L53.58 782.27 L58.67 779.33 L53.26 776.21 L48.18 779.15 ZM56.29 783.83
								 L61.69 786.95 L66.78 784.01 L61.37 780.89 L56.29 783.83 ZM48.66 788.23 L54.07 791.35 L59.15 788.42
								 L53.74 785.3 L48.66 788.23 ZM40.55 783.55 L45.96 786.67 L51.04 783.74 L45.63 780.61 L40.55 783.55
								 ZM16.22 769.5 L37.85 781.99 L42.93 779.05 L21.31 766.57 L16.22 769.5 ZM8.11 764.82 L13.52 767.94
								 L18.6 765.01 L13.2 761.89 L8.11 764.82 Z" class="st24"/>
				</g>
				<g id="shape137-118">
					<title>Sheet.137</title>
					<path d="M22.88 746.93 L28.29 750.05 L28.29 748.88 L22.88 745.76 L22.88 746.93 ZM30.99 751.61 L36.4 754.73 L36.4
								 753.56 L30.99 750.44 L30.99 751.61 ZM39.1 756.29 L44.51 759.41 L44.51 758.24 L39.1 755.12 L39.1
								 756.29 ZM47.21 760.97 L52.62 764.09 L52.62 762.92 L47.21 759.8 L47.21 760.97 ZM55.32 765.66 L60.73
								 768.78 L60.73 767.61 L55.32 764.49 L55.32 765.66 ZM63.43 770.34 L68.84 773.46 L68.84 772.29 L63.43
								 769.17 L63.43 770.34 ZM28.29 748.88 L28.29 750.05 L33.38 747.11 L33.38 745.94 L28.29 748.88 ZM36.4
								 753.56 L36.4 754.73 L41.49 751.79 L41.49 750.62 L36.4 753.56 ZM44.51 758.24 L44.51 759.41 L49.6
								 756.48 L49.6 755.31 L44.51 758.24 ZM52.62 762.92 L52.62 764.09 L57.71 761.16 L57.71 759.99 L52.62
								 762.92 ZM60.73 767.61 L60.73 768.78 L65.82 765.84 L65.82 764.67 L60.73 767.61 ZM68.84 772.29 L68.84
								 773.46 L73.93 770.52 L73.93 769.35 L68.84 772.29 ZM71.54 775.02 L76.95 778.14 L76.95 776.97 L71.54
								 773.85 L71.54 775.02 ZM76.95 776.97 L76.95 778.14 L82.04 775.21 L82.04 774.04 L76.95 776.97 ZM15.26
								 751.33 L20.66 754.45 L20.66 753.28 L15.26 750.16 L15.26 751.33 ZM23.37 756.01 L28.77 759.13 L28.77
								 757.96 L23.37 754.84 L23.37 756.01 ZM31.48 760.7 L36.88 763.82 L36.88 762.65 L31.48 759.53 L31.48
								 760.7 ZM39.59 765.38 L44.99 768.5 L44.99 767.33 L39.59 764.21 L39.59 765.38 ZM47.7 770.06 L53.1
								 773.18 L53.1 772.01 L47.7 768.89 L47.7 770.06 ZM55.81 774.74 L61.21 777.86 L61.21 776.69 L55.81
								 773.57 L55.81 774.74 ZM20.66 753.28 L20.66 754.45 L25.75 751.52 L25.75 750.35 L20.66 753.28 ZM28.77
								 757.96 L28.77 759.13 L33.86 756.2 L33.86 755.03 L28.77 757.96 ZM36.88 762.65 L36.88 763.82 L41.97
								 760.88 L41.97 759.71 L36.88 762.65 ZM44.99 767.33 L44.99 768.5 L50.08 765.56 L50.08 764.39 L44.99
								 767.33 ZM53.1 772.01 L53.1 773.18 L58.19 770.25 L58.19 769.08 L53.1 772.01 ZM61.21 776.69 L61.21
								 777.86 L66.3 774.93 L66.3 773.76 L61.21 776.69 ZM63.92 779.42 L69.32 782.55 L69.32 781.38 L63.92
								 778.25 L63.92 779.42 ZM69.32 781.38 L69.32 782.55 L74.41 779.61 L74.41 778.44 L69.32 781.38 ZM7.63
								 755.73 L13.03 758.86 L13.03 757.69 L7.63 754.56 L7.63 755.73 ZM15.74 760.42 L21.14 763.54 L21.14
								 762.37 L15.74 759.25 L15.74 760.42 ZM23.85 765.1 L29.25 768.22 L29.25 767.05 L23.85 763.93 L23.85
								 765.1 ZM31.96 769.78 L37.36 772.9 L37.36 771.73 L31.96 768.61 L31.96 769.78 ZM40.07 774.46 L45.47
								 777.59 L45.47 776.42 L40.07 773.29 L40.07 774.46 ZM48.18 779.15 L53.58 782.27 L53.58 781.1 L48.18
								 777.98 L48.18 779.15 ZM13.03 757.69 L13.03 758.86 L18.12 755.92 L18.12 754.75 L13.03 757.69 ZM21.14
								 762.37 L21.14 763.54 L26.23 760.6 L26.23 759.43 L21.14 762.37 ZM29.25 767.05 L29.25 768.22 L34.34
								 765.28 L34.34 764.11 L29.25 767.05 ZM37.36 771.73 L37.36 772.9 L42.45 769.97 L42.45 768.8 L37.36
								 771.73 ZM45.47 776.42 L45.47 777.59 L50.56 774.65 L50.56 773.48 L45.47 776.42 ZM53.58 781.1 L53.58
								 782.27 L58.67 779.33 L58.67 778.16 L53.58 781.1 ZM56.29 783.83 L61.69 786.95 L61.69 785.78 L56.29
								 782.66 L56.29 783.83 ZM61.69 785.78 L61.69 786.95 L66.78 784.01 L66.78 782.84 L61.69 785.78 ZM0
								 760.14 L5.41 763.26 L5.41 762.09 L0 758.97 L0 760.14 ZM8.11 764.82 L13.52 767.94 L13.52 766.77 L8.11
								 763.65 L8.11 764.82 ZM16.22 769.5 L37.85 781.99 L37.85 780.82 L16.22 768.33 L16.22 769.5 ZM40.55
								 783.55 L45.96 786.67 L45.96 785.5 L40.55 782.38 L40.55 783.55 ZM5.41 762.09 L5.41 763.26 L10.49
								 760.32 L10.49 759.15 L5.41 762.09 ZM13.52 766.77 L13.52 767.94 L18.6 765.01 L18.6 763.84 L13.52
								 766.77 ZM37.85 780.82 L37.85 781.99 L42.93 779.05 L42.93 777.88 L37.85 780.82 ZM45.96 785.5 L45.96
								 786.67 L51.04 783.74 L51.04 782.57 L45.96 785.5 ZM48.66 788.23 L54.07 791.35 L54.07 790.18 L48.66
								 787.06 L48.66 788.23 ZM54.07 790.18 L54.07 791.35 L59.15 788.42 L59.15 787.25 L54.07 790.18 Z"
							class="st25"/>
				</g>
			</g>
			<g id="shape138-120">
				<title>Sheet.138</title>
				<path d="M60.22 791.35 L100.62 767.95 L117 712.96 L57.03 678.37 L51.88 678.37 L37.67 726.3 L0 748.06 L0 756.25 A143.491
							 141.308 -90.05 0 0 60.22 791.35 Z" class="st26"/>
			</g>
			<g id="shape124-122"/>
		</g>
		<g id="group266-123" transform="translate(250.875,-640.8)">
			<title>Diagnostic device</title>
			<desc>Sensor pfSense runs on... firewall</desc>
			<g id="shape267-124">
				<title>Sheet.267</title>
				<path d="M48.27 791.35 A11.1503 10.5176 -3.78 0 0 53.34 789.89 L70.6 779.92 A4.75313 4.75313 -180 0 0 73.13 775.54
							 L73.13 750.48 A9.65305 9.65305 -180 0 0 71.87 745.36 A8.8749 8.8749 -180 0 0 68.07 741.71 L29.94 719.69
							 A9.05232 8.53867 -0.02 0 0 19.81 719.69 L5.08 728.2 A9.81388 9.81388 -180 0 0 1.28 731.85 A10.0056 10.0056
							 -180 0 0 0.01 736.97 L0.01 761.96 A5.06245 4.77519 -175.96 0 0 2.54 766.41 L43.21 789.89 A11.2221 10.5854
							 -177.1 0 0 48.27 791.35 Z" class="st1"/>
			</g>
			<g id="shape268-126" transform="translate(1.27619,-32.3688)">
				<title>Sheet.268</title>
				<path d="M47 791.35 L70.59 777.73 A8.8749 8.8749 -180 0 0 66.79 774.07 L28.66 752.06 A9.05232 8.53867 -0.02 0 0 18.53
							 752.06 L3.8 760.56 A9.81388 9.81388 -180 0 0 -0 764.22 A10275.6 9692.57 1.23 0 1 47 791.35 Z"
						class="st19"/>
			</g>
			<g id="shape269-129" transform="translate(48.2721,-1.71332E-008)">
				<title>Sheet.269</title>
				<path d="M-0 791.35 A11.1503 10.5176 -3.78 0 0 5.07 789.89 L22.33 779.92 A4.75313 4.75313 -180 0 0 24.86 775.54 L24.86
							 750.48 A9.65305 9.65305 -180 0 0 23.6 745.36 L0 758.98 L0 791.35 Z" class="st18"/>
			</g>
			<g id="shape270-132" transform="translate(2.75761E-005,-1.71328E-008)">
				<title>Sheet.270</title>
				<path d="M2.54 766.41 L43.21 789.89 A11.2221 10.5854 -177.1 0 0 48.27 791.35 L48.27 758.98 A1415.59 1335.26 -178.77
							 0 0 1.28 731.85 A10.0056 10.0056 -180 0 0 0.01 736.97 L0.01 761.96 A5.06245 4.77519 -175.96 0 0 2.54
							 766.41 Z" class="st20"/>
			</g>
			<g id="shape271-135">
				<title>Sheet.271</title>
				<path d="M0.01 736.97 L0.01 761.96 A5.05939 4.7723 -175.72 0 0 2.54 766.41 L43.21 789.89 A9.05234 8.53869 -0.18 0
							 0 53.34 789.89 L70.6 779.92 A4.75313 4.75313 -180 0 0 73.13 775.54 L73.13 750.48 A9.50624 9.50624 -180
							 0 0 68.07 741.71 L29.94 719.69 A9.05244 8.53878 -0.5 0 0 19.81 719.69 L5.08 728.2 A10.1478 9.572 -117.95
							 0 0 0.01 736.97" class="st7"/>
			</g>
			<g id="group272-138" transform="translate(4.10463,-7.78407)">
				<title>Sheet.272</title>
				<g id="shape273-139" transform="translate(1.94844E-013,-17.0784)">
					<title>Sheet.273</title>
					<path d="M0.84 781.04 A52.4132 49.4392 -178.25 0 0 16.38 790.01 L16.38 791.35 L16.38 772.46 A66.6456 62.8639
								 1.4 0 1 -0 762.98 L0.84 763.49 L0.84 781.04 Z" class="st27"/>
				</g>
				<g id="shape274-143" transform="translate(0,-18.5748)">
					<title>Sheet.274</title>
					<path d="M0 765.65 L0 783.2 A84.3814 68.2194 -36.87 0 0 13.22 791.35" class="st28"/>
				</g>
				<g id="shape275-146" transform="translate(22.7784,0)">
					<title>Sheet.275</title>
					<path d="M0 781.93 L16.32 791.35 L16.32 768.5 L0 759.08 L0 781.93 Z" class="st29"/>
				</g>
				<g id="group276-148" transform="translate(23.32,-16.6725)">
					<title>Sheet.276</title>
					<g id="shape277-149" transform="translate(8.33925,-0.167764)">
						<title>Sheet.277</title>
						<path d="M2.03 784.1 L0 785.27 L3.51 791.35 L5.54 790.18 A3.51001 2.0475 -120 0 0 2.03 784.1 Z"
								class="st30"/>
					</g>
					<g id="shape278-152" transform="translate(-385.601,106.877) rotate(-30)">
						<title>Sheet.278</title>
						<ellipse cx="2.0475" cy="787.844" rx="2.0475" ry="3.51" class="st30"/>
					</g>
					<g id="shape279-155" transform="translate(0.739808,-4.55526)">
						<title>Sheet.279</title>
						<path d="M2.03 784.1 L0 785.27 L3.51 791.35 L5.54 790.18 A3.51001 2.0475 -120 0 0 2.03 784.1 Z"
								class="st30"/>
					</g>
					<g id="shape280-158" transform="translate(-393.2,102.49) rotate(-30)">
						<title>Sheet.280</title>
						<ellipse cx="2.0475" cy="787.844" rx="2.0475" ry="3.51" class="st30"/>
					</g>
				</g>
				<g id="shape281-161" transform="translate(1.30399,-26.7612)">
					<title>Sheet.281</title>
					<path d="M0 783.6 L13.43 791.35" class="st31"/>
					<path d="M0 783.6 L0.45 785.94 A2.63093 1.58379 -104.04 0 0 3.55 787.69 L4.84 784.48 A3.54218 2.08287 90 0 1
								 8.35 786.35 L8.82 790.33" class="st31"/>
				</g>
				<g id="shape282-165" transform="translate(25.155,-3.85338)">
					<title>Sheet.282</title>
					<path d="M1.75 778.6 L1.75 776.26 L0 775.25 L0 777.59 L1.75 778.6 ZM1.75 782.7 L1.75 780.36 L0 779.35 L0 781.69
								 L1.75 782.7 ZM1.75 786.79 L1.75 784.45 L0 783.44 L0 785.78 L1.75 786.79 ZM4.39 780.12 L4.39 777.78
								 L2.63 776.77 L2.63 779.11 L4.39 780.12 ZM4.39 784.22 L4.39 781.88 L2.63 780.87 L2.63 783.21 L4.39
								 784.22 ZM4.39 788.31 L4.39 785.97 L2.63 784.96 L2.63 787.3 L4.39 788.31 ZM7.02 789.83 L7.02 787.49
								 L5.26 786.48 L5.26 788.82 L7.02 789.83 ZM7.02 785.74 L7.02 783.4 L5.26 782.39 L5.26 784.73 L7.02
								 785.74 ZM7.02 781.64 L7.02 779.3 L5.26 778.29 L5.26 780.63 L7.02 781.64 ZM9.65 783.16 L9.65 780.82
								 L7.9 779.81 L7.9 782.15 L9.65 783.16 ZM9.65 787.26 L9.65 784.92 L7.9 783.91 L7.9 786.25 L9.65 787.26
								 ZM9.65 791.35 L9.65 789.01 L7.9 788 L7.9 790.34 L9.65 791.35 Z" class="st24"/>
				</g>
				<g id="shape283-167" transform="translate(25.155,-3.85338)">
					<title>Sheet.283</title>
					<path d="M10.16 788.72 L8.4 787.71 L7.9 788 L9.65 789.01 L9.65 791.35 L10.16 791.06 L10.16 788.72 ZM10.16 784.63
								 L8.4 783.61 L7.9 783.91 L9.65 784.92 L9.65 787.26 L10.16 786.97 L10.16 784.63 ZM10.16 780.53 L8.4
								 779.52 L7.9 779.81 L9.65 780.82 L9.65 783.16 L10.16 782.87 L10.16 780.53 ZM1.75 776.26 L1.75 778.6
								 L2.26 778.31 L2.26 775.97 L0.51 774.96 L0 775.25 L1.75 776.26 ZM7.53 787.2 L5.77 786.19 L5.26 786.48
								 L7.02 787.49 L7.02 789.83 L7.53 789.54 L7.53 787.2 ZM7.53 779.01 L5.77 778 L5.26 778.29 L7.02 779.3
								 L7.02 781.64 L7.53 781.35 L7.53 779.01 ZM7.02 783.4 L7.02 785.74 L7.53 785.45 L7.53 783.11 L5.77
								 782.09 L5.26 782.39 L7.02 783.4 ZM4.39 781.88 L4.39 784.22 L4.89 783.93 L4.89 781.59 L3.14 780.57
								 L2.63 780.87 L4.39 781.88 ZM2.26 780.07 L0.51 779.05 L0 779.35 L1.75 780.36 L1.75 782.7 L2.26 782.41
								 L2.26 780.07 ZM4.89 785.68 L3.14 784.67 L2.63 784.96 L4.39 785.97 L4.39 788.31 L4.89 788.02 L4.89
								 785.68 ZM2.26 784.16 L0.51 783.15 L0 783.44 L1.75 784.45 L1.75 786.79 L2.26 786.5 L2.26 784.16 ZM4.89
								 777.49 L3.14 776.48 L2.63 776.77 L4.39 777.78 L4.39 780.12 L4.89 779.83 L4.89 777.49 Z"
							class="st32"/>
				</g>
			</g>
			<g id="shape266-169">
				<text x="29.97" y="810.23" class="st15">Sensor <tspan x="27.59" dy="1.2em" class="st16">pfSense </tspan><tspan
							x="23.84" dy="1.2em" class="st16">runs on</tspan><tspan class="st16">... </tspan><tspan x="28.54"
							dy="1.2em" class="st17">firewall</tspan></text>			</g>
		</g>
		<g id="group451-175" transform="translate(18,-692.266)">
			<title>Diagnostic device.451</title>
			<desc>Sensor Snort runs on… firewall</desc>
			<g id="shape452-176">
				<title>Sheet.452</title>
				<path d="M48.27 791.35 A11.1503 10.5176 -3.78 0 0 53.34 789.89 L70.6 779.92 A4.75313 4.75313 -180 0 0 73.13 775.54
							 L73.13 750.48 A9.65305 9.65305 -180 0 0 71.87 745.36 A8.8749 8.8749 -180 0 0 68.07 741.71 L29.94 719.69
							 A9.05232 8.53867 -0.02 0 0 19.81 719.69 L5.08 728.2 A9.81388 9.81388 -180 0 0 1.28 731.85 A10.0056 10.0056
							 -180 0 0 0.01 736.97 L0.01 761.96 A5.06245 4.77519 -175.96 0 0 2.54 766.41 L43.21 789.89 A11.2221 10.5854
							 -177.1 0 0 48.27 791.35 Z" class="st1"/>
			</g>
			<g id="shape453-178" transform="translate(1.27619,-32.3688)">
				<title>Sheet.453</title>
				<path d="M47 791.35 L70.59 777.73 A8.8749 8.8749 -180 0 0 66.79 774.07 L28.66 752.06 A9.05232 8.53867 -0.02 0 0 18.53
							 752.06 L3.8 760.56 A9.81388 9.81388 -180 0 0 -0 764.22 A10275.6 9692.57 1.23 0 1 47 791.35 Z"
						class="st19"/>
			</g>
			<g id="shape454-181" transform="translate(48.2721,-1.71332E-008)">
				<title>Sheet.454</title>
				<path d="M-0 791.35 A11.1503 10.5176 -3.78 0 0 5.07 789.89 L22.33 779.92 A4.75313 4.75313 -180 0 0 24.86 775.54 L24.86
							 750.48 A9.65305 9.65305 -180 0 0 23.6 745.36 L0 758.98 L0 791.35 Z" class="st18"/>
			</g>
			<g id="shape455-184" transform="translate(2.75761E-005,-1.71328E-008)">
				<title>Sheet.455</title>
				<path d="M2.54 766.41 L43.21 789.89 A11.2221 10.5854 -177.1 0 0 48.27 791.35 L48.27 758.98 A1415.59 1335.26 -178.77
							 0 0 1.28 731.85 A10.0056 10.0056 -180 0 0 0.01 736.97 L0.01 761.96 A5.06245 4.77519 -175.96 0 0 2.54
							 766.41 Z" class="st20"/>
			</g>
			<g id="shape456-187">
				<title>Sheet.456</title>
				<path d="M0.01 736.97 L0.01 761.96 A5.05939 4.7723 -175.72 0 0 2.54 766.41 L43.21 789.89 A9.05234 8.53869 -0.18 0
							 0 53.34 789.89 L70.6 779.92 A4.75313 4.75313 -180 0 0 73.13 775.54 L73.13 750.48 A9.50624 9.50624 -180
							 0 0 68.07 741.71 L29.94 719.69 A9.05244 8.53878 -0.5 0 0 19.81 719.69 L5.08 728.2 A10.1478 9.572 -117.95
							 0 0 0.01 736.97" class="st7"/>
			</g>
			<g id="group457-190" transform="translate(4.10463,-7.78407)">
				<title>Sheet.457</title>
				<g id="shape458-191" transform="translate(1.94844E-013,-17.0784)">
					<title>Sheet.458</title>
					<path d="M0.84 781.04 A52.4132 49.4392 -178.25 0 0 16.38 790.01 L16.38 791.35 L16.38 772.46 A66.6456 62.8639
								 1.4 0 1 -0 762.98 L0.84 763.49 L0.84 781.04 Z" class="st27"/>
				</g>
				<g id="shape459-194" transform="translate(0,-18.5748)">
					<title>Sheet.459</title>
					<path d="M0 765.65 L0 783.2 A84.3814 68.2194 -36.87 0 0 13.22 791.35" class="st28"/>
				</g>
				<g id="shape460-197" transform="translate(22.7784,0)">
					<title>Sheet.460</title>
					<path d="M0 781.93 L16.32 791.35 L16.32 768.5 L0 759.08 L0 781.93 Z" class="st29"/>
				</g>
				<g id="group461-199" transform="translate(23.32,-16.6725)">
					<title>Sheet.461</title>
					<g id="shape462-200" transform="translate(8.33925,-0.167764)">
						<title>Sheet.462</title>
						<path d="M2.03 784.1 L0 785.27 L3.51 791.35 L5.54 790.18 A3.51001 2.0475 -120 0 0 2.03 784.1 Z"
								class="st30"/>
					</g>
					<g id="shape463-203" transform="translate(-385.601,106.877) rotate(-30)">
						<title>Sheet.463</title>
						<ellipse cx="2.0475" cy="787.844" rx="2.0475" ry="3.51" class="st30"/>
					</g>
					<g id="shape464-206" transform="translate(0.739808,-4.55526)">
						<title>Sheet.464</title>
						<path d="M2.03 784.1 L0 785.27 L3.51 791.35 L5.54 790.18 A3.51001 2.0475 -120 0 0 2.03 784.1 Z"
								class="st30"/>
					</g>
					<g id="shape465-209" transform="translate(-393.2,102.49) rotate(-30)">
						<title>Sheet.465</title>
						<ellipse cx="2.0475" cy="787.844" rx="2.0475" ry="3.51" class="st30"/>
					</g>
				</g>
				<g id="shape466-212" transform="translate(1.30399,-26.7612)">
					<title>Sheet.466</title>
					<path d="M0 783.6 L13.43 791.35" class="st31"/>
					<path d="M0 783.6 L0.45 785.94 A2.63093 1.58379 -104.04 0 0 3.55 787.69 L4.84 784.48 A3.54218 2.08287 90 0 1
								 8.35 786.35 L8.82 790.33" class="st31"/>
				</g>
				<g id="shape467-216" transform="translate(25.155,-3.85338)">
					<title>Sheet.467</title>
					<path d="M1.75 778.6 L1.75 776.26 L0 775.25 L0 777.59 L1.75 778.6 ZM1.75 782.7 L1.75 780.36 L0 779.35 L0 781.69
								 L1.75 782.7 ZM1.75 786.79 L1.75 784.45 L0 783.44 L0 785.78 L1.75 786.79 ZM4.39 780.12 L4.39 777.78
								 L2.63 776.77 L2.63 779.11 L4.39 780.12 ZM4.39 784.22 L4.39 781.88 L2.63 780.87 L2.63 783.21 L4.39
								 784.22 ZM4.39 788.31 L4.39 785.97 L2.63 784.96 L2.63 787.3 L4.39 788.31 ZM7.02 789.83 L7.02 787.49
								 L5.26 786.48 L5.26 788.82 L7.02 789.83 ZM7.02 785.74 L7.02 783.4 L5.26 782.39 L5.26 784.73 L7.02
								 785.74 ZM7.02 781.64 L7.02 779.3 L5.26 778.29 L5.26 780.63 L7.02 781.64 ZM9.65 783.16 L9.65 780.82
								 L7.9 779.81 L7.9 782.15 L9.65 783.16 ZM9.65 787.26 L9.65 784.92 L7.9 783.91 L7.9 786.25 L9.65 787.26
								 ZM9.65 791.35 L9.65 789.01 L7.9 788 L7.9 790.34 L9.65 791.35 Z" class="st24"/>
				</g>
				<g id="shape468-218" transform="translate(25.155,-3.85338)">
					<title>Sheet.468</title>
					<path d="M10.16 788.72 L8.4 787.71 L7.9 788 L9.65 789.01 L9.65 791.35 L10.16 791.06 L10.16 788.72 ZM10.16 784.63
								 L8.4 783.61 L7.9 783.91 L9.65 784.92 L9.65 787.26 L10.16 786.97 L10.16 784.63 ZM10.16 780.53 L8.4
								 779.52 L7.9 779.81 L9.65 780.82 L9.65 783.16 L10.16 782.87 L10.16 780.53 ZM1.75 776.26 L1.75 778.6
								 L2.26 778.31 L2.26 775.97 L0.51 774.96 L0 775.25 L1.75 776.26 ZM7.53 787.2 L5.77 786.19 L5.26 786.48
								 L7.02 787.49 L7.02 789.83 L7.53 789.54 L7.53 787.2 ZM7.53 779.01 L5.77 778 L5.26 778.29 L7.02 779.3
								 L7.02 781.64 L7.53 781.35 L7.53 779.01 ZM7.02 783.4 L7.02 785.74 L7.53 785.45 L7.53 783.11 L5.77
								 782.09 L5.26 782.39 L7.02 783.4 ZM4.39 781.88 L4.39 784.22 L4.89 783.93 L4.89 781.59 L3.14 780.57
								 L2.63 780.87 L4.39 781.88 ZM2.26 780.07 L0.51 779.05 L0 779.35 L1.75 780.36 L1.75 782.7 L2.26 782.41
								 L2.26 780.07 ZM4.89 785.68 L3.14 784.67 L2.63 784.96 L4.39 785.97 L4.39 788.31 L4.89 788.02 L4.89
								 785.68 ZM2.26 784.16 L0.51 783.15 L0 783.44 L1.75 784.45 L1.75 786.79 L2.26 786.5 L2.26 784.16 ZM4.89
								 777.49 L3.14 776.48 L2.63 776.77 L4.39 777.78 L4.39 780.12 L4.89 779.83 L4.89 777.49 Z"
							class="st32"/>
				</g>
			</g>
			<g id="shape451-220">
				<text x="29.97" y="810.23" class="st15">Sensor <tspan x="33.63" dy="1.2em" class="st16">Snort </tspan><tspan
							x="24.58" dy="1.2em" class="st17">runs on… </tspan><tspan x="28.54" dy="1.2em" class="st17">firewall</tspan></text>			</g>
		</g>
		<g id="group469-225" transform="translate(568.8,-452.475)">
			<title>Diagnostic device.469</title>
			<desc>Sensor Sweet Security Client (Zeek) runs on... tap</desc>
			<g id="shape470-226">
				<title>Sheet.470</title>
				<path d="M48.27 791.35 A11.1503 10.5176 -3.78 0 0 53.34 789.89 L70.6 779.92 A4.75313 4.75313 -180 0 0 73.13 775.54
							 L73.13 750.48 A9.65305 9.65305 -180 0 0 71.87 745.36 A8.8749 8.8749 -180 0 0 68.07 741.71 L29.94 719.69
							 A9.05232 8.53867 -0.02 0 0 19.81 719.69 L5.08 728.2 A9.81388 9.81388 -180 0 0 1.28 731.85 A10.0056 10.0056
							 -180 0 0 0.01 736.97 L0.01 761.96 A5.06245 4.77519 -175.96 0 0 2.54 766.41 L43.21 789.89 A11.2221 10.5854
							 -177.1 0 0 48.27 791.35 Z" class="st1"/>
			</g>
			<g id="shape471-228" transform="translate(1.27619,-32.3688)">
				<title>Sheet.471</title>
				<path d="M47 791.35 L70.59 777.73 A8.8749 8.8749 -180 0 0 66.79 774.07 L28.66 752.06 A9.05232 8.53867 -0.02 0 0 18.53
							 752.06 L3.8 760.56 A9.81388 9.81388 -180 0 0 -0 764.22 A10275.6 9692.57 1.23 0 1 47 791.35 Z"
						class="st19"/>
			</g>
			<g id="shape472-231" transform="translate(48.2721,-1.71332E-008)">
				<title>Sheet.472</title>
				<path d="M-0 791.35 A11.1503 10.5176 -3.78 0 0 5.07 789.89 L22.33 779.92 A4.75313 4.75313 -180 0 0 24.86 775.54 L24.86
							 750.48 A9.65305 9.65305 -180 0 0 23.6 745.36 L0 758.98 L0 791.35 Z" class="st18"/>
			</g>
			<g id="shape473-234" transform="translate(2.75761E-005,-1.71328E-008)">
				<title>Sheet.473</title>
				<path d="M2.54 766.41 L43.21 789.89 A11.2221 10.5854 -177.1 0 0 48.27 791.35 L48.27 758.98 A1415.59 1335.26 -178.77
							 0 0 1.28 731.85 A10.0056 10.0056 -180 0 0 0.01 736.97 L0.01 761.96 A5.06245 4.77519 -175.96 0 0 2.54
							 766.41 Z" class="st20"/>
			</g>
			<g id="shape474-237">
				<title>Sheet.474</title>
				<path d="M0.01 736.97 L0.01 761.96 A5.05939 4.7723 -175.72 0 0 2.54 766.41 L43.21 789.89 A9.05234 8.53869 -0.18 0
							 0 53.34 789.89 L70.6 779.92 A4.75313 4.75313 -180 0 0 73.13 775.54 L73.13 750.48 A9.50624 9.50624 -180
							 0 0 68.07 741.71 L29.94 719.69 A9.05244 8.53878 -0.5 0 0 19.81 719.69 L5.08 728.2 A10.1478 9.572 -117.95
							 0 0 0.01 736.97" class="st7"/>
			</g>
			<g id="group475-240" transform="translate(4.10463,-7.78407)">
				<title>Sheet.475</title>
				<g id="shape476-241" transform="translate(1.94844E-013,-17.0784)">
					<title>Sheet.476</title>
					<path d="M0.84 781.04 A52.4132 49.4392 -178.25 0 0 16.38 790.01 L16.38 791.35 L16.38 772.46 A66.6456 62.8639
								 1.4 0 1 -0 762.98 L0.84 763.49 L0.84 781.04 Z" class="st27"/>
				</g>
				<g id="shape477-244" transform="translate(0,-18.5748)">
					<title>Sheet.477</title>
					<path d="M0 765.65 L0 783.2 A84.3814 68.2194 -36.87 0 0 13.22 791.35" class="st28"/>
				</g>
				<g id="shape478-247" transform="translate(22.7784,0)">
					<title>Sheet.478</title>
					<path d="M0 781.93 L16.32 791.35 L16.32 768.5 L0 759.08 L0 781.93 Z" class="st29"/>
				</g>
				<g id="group479-249" transform="translate(23.32,-16.6725)">
					<title>Sheet.479</title>
					<g id="shape480-250" transform="translate(8.33925,-0.167764)">
						<title>Sheet.480</title>
						<path d="M2.03 784.1 L0 785.27 L3.51 791.35 L5.54 790.18 A3.51001 2.0475 -120 0 0 2.03 784.1 Z"
								class="st30"/>
					</g>
					<g id="shape481-253" transform="translate(-385.601,106.877) rotate(-30)">
						<title>Sheet.481</title>
						<ellipse cx="2.0475" cy="787.844" rx="2.0475" ry="3.51" class="st30"/>
					</g>
					<g id="shape482-256" transform="translate(0.739808,-4.55526)">
						<title>Sheet.482</title>
						<path d="M2.03 784.1 L0 785.27 L3.51 791.35 L5.54 790.18 A3.51001 2.0475 -120 0 0 2.03 784.1 Z"
								class="st30"/>
					</g>
					<g id="shape483-259" transform="translate(-393.2,102.49) rotate(-30)">
						<title>Sheet.483</title>
						<ellipse cx="2.0475" cy="787.844" rx="2.0475" ry="3.51" class="st30"/>
					</g>
				</g>
				<g id="shape484-262" transform="translate(1.30399,-26.7612)">
					<title>Sheet.484</title>
					<path d="M0 783.6 L13.43 791.35" class="st31"/>
					<path d="M0 783.6 L0.45 785.94 A2.63093 1.58379 -104.04 0 0 3.55 787.69 L4.84 784.48 A3.54218 2.08287 90 0 1
								 8.35 786.35 L8.82 790.33" class="st31"/>
				</g>
				<g id="shape485-266" transform="translate(25.155,-3.85338)">
					<title>Sheet.485</title>
					<path d="M1.75 778.6 L1.75 776.26 L0 775.25 L0 777.59 L1.75 778.6 ZM1.75 782.7 L1.75 780.36 L0 779.35 L0 781.69
								 L1.75 782.7 ZM1.75 786.79 L1.75 784.45 L0 783.44 L0 785.78 L1.75 786.79 ZM4.39 780.12 L4.39 777.78
								 L2.63 776.77 L2.63 779.11 L4.39 780.12 ZM4.39 784.22 L4.39 781.88 L2.63 780.87 L2.63 783.21 L4.39
								 784.22 ZM4.39 788.31 L4.39 785.97 L2.63 784.96 L2.63 787.3 L4.39 788.31 ZM7.02 789.83 L7.02 787.49
								 L5.26 786.48 L5.26 788.82 L7.02 789.83 ZM7.02 785.74 L7.02 783.4 L5.26 782.39 L5.26 784.73 L7.02
								 785.74 ZM7.02 781.64 L7.02 779.3 L5.26 778.29 L5.26 780.63 L7.02 781.64 ZM9.65 783.16 L9.65 780.82
								 L7.9 779.81 L7.9 782.15 L9.65 783.16 ZM9.65 787.26 L9.65 784.92 L7.9 783.91 L7.9 786.25 L9.65 787.26
								 ZM9.65 791.35 L9.65 789.01 L7.9 788 L7.9 790.34 L9.65 791.35 Z" class="st24"/>
				</g>
				<g id="shape486-268" transform="translate(25.155,-3.85338)">
					<title>Sheet.486</title>
					<path d="M10.16 788.72 L8.4 787.71 L7.9 788 L9.65 789.01 L9.65 791.35 L10.16 791.06 L10.16 788.72 ZM10.16 784.63
								 L8.4 783.61 L7.9 783.91 L9.65 784.92 L9.65 787.26 L10.16 786.97 L10.16 784.63 ZM10.16 780.53 L8.4
								 779.52 L7.9 779.81 L9.65 780.82 L9.65 783.16 L10.16 782.87 L10.16 780.53 ZM1.75 776.26 L1.75 778.6
								 L2.26 778.31 L2.26 775.97 L0.51 774.96 L0 775.25 L1.75 776.26 ZM7.53 787.2 L5.77 786.19 L5.26 786.48
								 L7.02 787.49 L7.02 789.83 L7.53 789.54 L7.53 787.2 ZM7.53 779.01 L5.77 778 L5.26 778.29 L7.02 779.3
								 L7.02 781.64 L7.53 781.35 L7.53 779.01 ZM7.02 783.4 L7.02 785.74 L7.53 785.45 L7.53 783.11 L5.77
								 782.09 L5.26 782.39 L7.02 783.4 ZM4.39 781.88 L4.39 784.22 L4.89 783.93 L4.89 781.59 L3.14 780.57
								 L2.63 780.87 L4.39 781.88 ZM2.26 780.07 L0.51 779.05 L0 779.35 L1.75 780.36 L1.75 782.7 L2.26 782.41
								 L2.26 780.07 ZM4.89 785.68 L3.14 784.67 L2.63 784.96 L4.39 785.97 L4.39 788.31 L4.89 788.02 L4.89
								 785.68 ZM2.26 784.16 L0.51 783.15 L0 783.44 L1.75 784.45 L1.75 786.79 L2.26 786.5 L2.26 784.16 ZM4.89
								 777.49 L3.14 776.48 L2.63 776.77 L4.39 777.78 L4.39 780.12 L4.89 779.83 L4.89 777.49 Z"
							class="st32"/>
				</g>
			</g>
			<g id="shape469-270">
				<text x="29.97" y="810.23" class="st15">Sensor <tspan x="-21.17" dy="1.2em" class="st16">Sweet Security Client </tspan><tspan
							class="st16">(</tspan><tspan class="st16">Zeek</tspan><tspan class="st16">) </tspan><tspan x="23.84"
							dy="1.2em" class="st16">runs on</tspan><tspan class="st16">... </tspan><tspan x="38.62" dy="1.2em"
							class="st17">tap</tspan></text>			</g>
		</g>
		<g id="group487-279" transform="translate(396.843,-577.89)">
			<title>Diagnostic device.487</title>
			<desc>Sensors Wazuh Agent (OSSEC) Sysmon Windows Defender runs on.....</desc>
			<g id="shape488-280">
				<title>Sheet.488</title>
				<path d="M48.27 791.35 A11.1503 10.5176 -3.78 0 0 53.34 789.89 L70.6 779.92 A4.75313 4.75313 -180 0 0 73.13 775.54
							 L73.13 750.48 A9.65305 9.65305 -180 0 0 71.87 745.36 A8.8749 8.8749 -180 0 0 68.07 741.71 L29.94 719.69
							 A9.05232 8.53867 -0.02 0 0 19.81 719.69 L5.08 728.2 A9.81388 9.81388 -180 0 0 1.28 731.85 A10.0056 10.0056
							 -180 0 0 0.01 736.97 L0.01 761.96 A5.06245 4.77519 -175.96 0 0 2.54 766.41 L43.21 789.89 A11.2221 10.5854
							 -177.1 0 0 48.27 791.35 Z" class="st1"/>
			</g>
			<g id="shape489-282" transform="translate(1.27619,-32.3688)">
				<title>Sheet.489</title>
				<path d="M47 791.35 L70.59 777.73 A8.8749 8.8749 -180 0 0 66.79 774.07 L28.66 752.06 A9.05232 8.53867 -0.02 0 0 18.53
							 752.06 L3.8 760.56 A9.81388 9.81388 -180 0 0 -0 764.22 A10275.6 9692.57 1.23 0 1 47 791.35 Z"
						class="st19"/>
			</g>
			<g id="shape490-285" transform="translate(48.2721,-1.71332E-008)">
				<title>Sheet.490</title>
				<path d="M-0 791.35 A11.1503 10.5176 -3.78 0 0 5.07 789.89 L22.33 779.92 A4.75313 4.75313 -180 0 0 24.86 775.54 L24.86
							 750.48 A9.65305 9.65305 -180 0 0 23.6 745.36 L0 758.98 L0 791.35 Z" class="st18"/>
			</g>
			<g id="shape491-288" transform="translate(2.75761E-005,-1.71328E-008)">
				<title>Sheet.491</title>
				<path d="M2.54 766.41 L43.21 789.89 A11.2221 10.5854 -177.1 0 0 48.27 791.35 L48.27 758.98 A1415.59 1335.26 -178.77
							 0 0 1.28 731.85 A10.0056 10.0056 -180 0 0 0.01 736.97 L0.01 761.96 A5.06245 4.77519 -175.96 0 0 2.54
							 766.41 Z" class="st20"/>
			</g>
			<g id="shape492-291">
				<title>Sheet.492</title>
				<path d="M0.01 736.97 L0.01 761.96 A5.05939 4.7723 -175.72 0 0 2.54 766.41 L43.21 789.89 A9.05234 8.53869 -0.18 0
							 0 53.34 789.89 L70.6 779.92 A4.75313 4.75313 -180 0 0 73.13 775.54 L73.13 750.48 A9.50624 9.50624 -180
							 0 0 68.07 741.71 L29.94 719.69 A9.05244 8.53878 -0.5 0 0 19.81 719.69 L5.08 728.2 A10.1478 9.572 -117.95
							 0 0 0.01 736.97" class="st7"/>
			</g>
			<g id="group493-294" transform="translate(4.10463,-7.78407)">
				<title>Sheet.493</title>
				<g id="shape494-295" transform="translate(1.94844E-013,-17.0784)">
					<title>Sheet.494</title>
					<path d="M0.84 781.04 A52.4132 49.4392 -178.25 0 0 16.38 790.01 L16.38 791.35 L16.38 772.46 A66.6456 62.8639
								 1.4 0 1 -0 762.98 L0.84 763.49 L0.84 781.04 Z" class="st27"/>
				</g>
				<g id="shape495-298" transform="translate(0,-18.5748)">
					<title>Sheet.495</title>
					<path d="M0 765.65 L0 783.2 A84.3814 68.2194 -36.87 0 0 13.22 791.35" class="st28"/>
				</g>
				<g id="shape496-301" transform="translate(22.7784,0)">
					<title>Sheet.496</title>
					<path d="M0 781.93 L16.32 791.35 L16.32 768.5 L0 759.08 L0 781.93 Z" class="st29"/>
				</g>
				<g id="group497-303" transform="translate(23.32,-16.6725)">
					<title>Sheet.497</title>
					<g id="shape498-304" transform="translate(8.33925,-0.167764)">
						<title>Sheet.498</title>
						<path d="M2.03 784.1 L0 785.27 L3.51 791.35 L5.54 790.18 A3.51001 2.0475 -120 0 0 2.03 784.1 Z"
								class="st30"/>
					</g>
					<g id="shape499-307" transform="translate(-385.601,106.877) rotate(-30)">
						<title>Sheet.499</title>
						<ellipse cx="2.0475" cy="787.844" rx="2.0475" ry="3.51" class="st30"/>
					</g>
					<g id="shape500-310" transform="translate(0.739808,-4.55526)">
						<title>Sheet.500</title>
						<path d="M2.03 784.1 L0 785.27 L3.51 791.35 L5.54 790.18 A3.51001 2.0475 -120 0 0 2.03 784.1 Z"
								class="st30"/>
					</g>
					<g id="shape501-313" transform="translate(-393.2,102.49) rotate(-30)">
						<title>Sheet.501</title>
						<ellipse cx="2.0475" cy="787.844" rx="2.0475" ry="3.51" class="st30"/>
					</g>
				</g>
				<g id="shape502-316" transform="translate(1.30399,-26.7612)">
					<title>Sheet.502</title>
					<path d="M0 783.6 L13.43 791.35" class="st31"/>
					<path d="M0 783.6 L0.45 785.94 A2.63093 1.58379 -104.04 0 0 3.55 787.69 L4.84 784.48 A3.54218 2.08287 90 0 1
								 8.35 786.35 L8.82 790.33" class="st31"/>
				</g>
				<g id="shape503-320" transform="translate(25.155,-3.85338)">
					<title>Sheet.503</title>
					<path d="M1.75 778.6 L1.75 776.26 L0 775.25 L0 777.59 L1.75 778.6 ZM1.75 782.7 L1.75 780.36 L0 779.35 L0 781.69
								 L1.75 782.7 ZM1.75 786.79 L1.75 784.45 L0 783.44 L0 785.78 L1.75 786.79 ZM4.39 780.12 L4.39 777.78
								 L2.63 776.77 L2.63 779.11 L4.39 780.12 ZM4.39 784.22 L4.39 781.88 L2.63 780.87 L2.63 783.21 L4.39
								 784.22 ZM4.39 788.31 L4.39 785.97 L2.63 784.96 L2.63 787.3 L4.39 788.31 ZM7.02 789.83 L7.02 787.49
								 L5.26 786.48 L5.26 788.82 L7.02 789.83 ZM7.02 785.74 L7.02 783.4 L5.26 782.39 L5.26 784.73 L7.02
								 785.74 ZM7.02 781.64 L7.02 779.3 L5.26 778.29 L5.26 780.63 L7.02 781.64 ZM9.65 783.16 L9.65 780.82
								 L7.9 779.81 L7.9 782.15 L9.65 783.16 ZM9.65 787.26 L9.65 784.92 L7.9 783.91 L7.9 786.25 L9.65 787.26
								 ZM9.65 791.35 L9.65 789.01 L7.9 788 L7.9 790.34 L9.65 791.35 Z" class="st24"/>
				</g>
				<g id="shape504-322" transform="translate(25.155,-3.85338)">
					<title>Sheet.504</title>
					<path d="M10.16 788.72 L8.4 787.71 L7.9 788 L9.65 789.01 L9.65 791.35 L10.16 791.06 L10.16 788.72 ZM10.16 784.63
								 L8.4 783.61 L7.9 783.91 L9.65 784.92 L9.65 787.26 L10.16 786.97 L10.16 784.63 ZM10.16 780.53 L8.4
								 779.52 L7.9 779.81 L9.65 780.82 L9.65 783.16 L10.16 782.87 L10.16 780.53 ZM1.75 776.26 L1.75 778.6
								 L2.26 778.31 L2.26 775.97 L0.51 774.96 L0 775.25 L1.75 776.26 ZM7.53 787.2 L5.77 786.19 L5.26 786.48
								 L7.02 787.49 L7.02 789.83 L7.53 789.54 L7.53 787.2 ZM7.53 779.01 L5.77 778 L5.26 778.29 L7.02 779.3
								 L7.02 781.64 L7.53 781.35 L7.53 779.01 ZM7.02 783.4 L7.02 785.74 L7.53 785.45 L7.53 783.11 L5.77
								 782.09 L5.26 782.39 L7.02 783.4 ZM4.39 781.88 L4.39 784.22 L4.89 783.93 L4.89 781.59 L3.14 780.57
								 L2.63 780.87 L4.39 781.88 ZM2.26 780.07 L0.51 779.05 L0 779.35 L1.75 780.36 L1.75 782.7 L2.26 782.41
								 L2.26 780.07 ZM4.89 785.68 L3.14 784.67 L2.63 784.96 L4.39 785.97 L4.39 788.31 L4.89 788.02 L4.89
								 785.68 ZM2.26 784.16 L0.51 783.15 L0 783.44 L1.75 784.45 L1.75 786.79 L2.26 786.5 L2.26 784.16 ZM4.89
								 777.49 L3.14 776.48 L2.63 776.77 L4.39 777.78 L4.39 780.12 L4.89 779.83 L4.89 777.49 Z"
							class="st32"/>
				</g>
			</g>
			<g id="shape487-324">
				<text x="27.58" y="803.03" class="st15">Sensors <tspan x="-6.5" dy="1.2em" class="st16">Wazuh Agent </tspan><tspan
							class="st16">(</tspan><tspan class="st16">OSSEC</tspan><tspan class="st16">) </tspan><tspan x="27.87"
							dy="1.2em" class="st16">Sysmon </tspan><tspan x="-0.25" dy="1.2em" class="st16">Windows Defender </tspan><tspan
							x="23.84" dy="1.2em" class="st16">runs on</tspan><tspan class="st16">... </tspan><tspan x="13.02"
							dy="1.2em" class="st17">dc</tspan><tspan class="st17">1</tspan><tspan class="st17">.</tspan><tspan
							class="st17">corp</tspan><tspan class="st17">.</tspan><tspan class="st17">local </tspan><tspan
							x="13.02" dy="1.2em" class="st17">dc</tspan><tspan class="st17">2</tspan><tspan class="st17">.</tspan><tspan
							class="st17">corp</tspan><tspan class="st17">.</tspan><tspan class="st17">local </tspan><tspan x="6.81"
							dy="1.2em" class="st17">win</tspan><tspan class="st17">81</tspan><tspan class="st17">.</tspan><tspan
							class="st17">corp</tspan><tspan class="st17">.</tspan><tspan class="st17">local</tspan></text>			</g>
		</g>
		<g id="group505-352" transform="translate(682.875,-338.4)">
			<title>Diagnostic device.505</title>
			<desc>Sensor HoneyTrap runs on... honeysrv</desc>
			<g id="shape506-353">
				<title>Sheet.506</title>
				<path d="M48.27 791.35 A11.1503 10.5176 -3.78 0 0 53.34 789.89 L70.6 779.92 A4.75313 4.75313 -180 0 0 73.13 775.54
							 L73.13 750.48 A9.65305 9.65305 -180 0 0 71.87 745.36 A8.8749 8.8749 -180 0 0 68.07 741.71 L29.94 719.69
							 A9.05232 8.53867 -0.02 0 0 19.81 719.69 L5.08 728.2 A9.81388 9.81388 -180 0 0 1.28 731.85 A10.0056 10.0056
							 -180 0 0 0.01 736.97 L0.01 761.96 A5.06245 4.77519 -175.96 0 0 2.54 766.41 L43.21 789.89 A11.2221 10.5854
							 -177.1 0 0 48.27 791.35 Z" class="st1"/>
			</g>
			<g id="shape507-355" transform="translate(1.27619,-32.3688)">
				<title>Sheet.507</title>
				<path d="M47 791.35 L70.59 777.73 A8.8749 8.8749 -180 0 0 66.79 774.07 L28.66 752.06 A9.05232 8.53867 -0.02 0 0 18.53
							 752.06 L3.8 760.56 A9.81388 9.81388 -180 0 0 -0 764.22 A10275.6 9692.57 1.23 0 1 47 791.35 Z"
						class="st19"/>
			</g>
			<g id="shape508-358" transform="translate(48.2721,-1.71332E-008)">
				<title>Sheet.508</title>
				<path d="M-0 791.35 A11.1503 10.5176 -3.78 0 0 5.07 789.89 L22.33 779.92 A4.75313 4.75313 -180 0 0 24.86 775.54 L24.86
							 750.48 A9.65305 9.65305 -180 0 0 23.6 745.36 L0 758.98 L0 791.35 Z" class="st18"/>
			</g>
			<g id="shape509-361" transform="translate(2.75761E-005,-1.71328E-008)">
				<title>Sheet.509</title>
				<path d="M2.54 766.41 L43.21 789.89 A11.2221 10.5854 -177.1 0 0 48.27 791.35 L48.27 758.98 A1415.59 1335.26 -178.77
							 0 0 1.28 731.85 A10.0056 10.0056 -180 0 0 0.01 736.97 L0.01 761.96 A5.06245 4.77519 -175.96 0 0 2.54
							 766.41 Z" class="st20"/>
			</g>
			<g id="shape510-364">
				<title>Sheet.510</title>
				<path d="M0.01 736.97 L0.01 761.96 A5.05939 4.7723 -175.72 0 0 2.54 766.41 L43.21 789.89 A9.05234 8.53869 -0.18 0
							 0 53.34 789.89 L70.6 779.92 A4.75313 4.75313 -180 0 0 73.13 775.54 L73.13 750.48 A9.50624 9.50624 -180
							 0 0 68.07 741.71 L29.94 719.69 A9.05244 8.53878 -0.5 0 0 19.81 719.69 L5.08 728.2 A10.1478 9.572 -117.95
							 0 0 0.01 736.97" class="st7"/>
			</g>
			<g id="group511-367" transform="translate(4.10463,-7.78407)">
				<title>Sheet.511</title>
				<g id="shape512-368" transform="translate(1.94844E-013,-17.0784)">
					<title>Sheet.512</title>
					<path d="M0.84 781.04 A52.4132 49.4392 -178.25 0 0 16.38 790.01 L16.38 791.35 L16.38 772.46 A66.6456 62.8639
								 1.4 0 1 -0 762.98 L0.84 763.49 L0.84 781.04 Z" class="st27"/>
				</g>
				<g id="shape513-371" transform="translate(0,-18.5748)">
					<title>Sheet.513</title>
					<path d="M0 765.65 L0 783.2 A84.3814 68.2194 -36.87 0 0 13.22 791.35" class="st28"/>
				</g>
				<g id="shape514-374" transform="translate(22.7784,0)">
					<title>Sheet.514</title>
					<path d="M0 781.93 L16.32 791.35 L16.32 768.5 L0 759.08 L0 781.93 Z" class="st29"/>
				</g>
				<g id="group515-376" transform="translate(23.32,-16.6725)">
					<title>Sheet.515</title>
					<g id="shape516-377" transform="translate(8.33925,-0.167764)">
						<title>Sheet.516</title>
						<path d="M2.03 784.1 L0 785.27 L3.51 791.35 L5.54 790.18 A3.51001 2.0475 -120 0 0 2.03 784.1 Z"
								class="st30"/>
					</g>
					<g id="shape517-380" transform="translate(-385.601,106.877) rotate(-30)">
						<title>Sheet.517</title>
						<ellipse cx="2.0475" cy="787.844" rx="2.0475" ry="3.51" class="st30"/>
					</g>
					<g id="shape518-383" transform="translate(0.739808,-4.55526)">
						<title>Sheet.518</title>
						<path d="M2.03 784.1 L0 785.27 L3.51 791.35 L5.54 790.18 A3.51001 2.0475 -120 0 0 2.03 784.1 Z"
								class="st30"/>
					</g>
					<g id="shape519-386" transform="translate(-393.2,102.49) rotate(-30)">
						<title>Sheet.519</title>
						<ellipse cx="2.0475" cy="787.844" rx="2.0475" ry="3.51" class="st30"/>
					</g>
				</g>
				<g id="shape520-389" transform="translate(1.30399,-26.7612)">
					<title>Sheet.520</title>
					<path d="M0 783.6 L13.43 791.35" class="st31"/>
					<path d="M0 783.6 L0.45 785.94 A2.63093 1.58379 -104.04 0 0 3.55 787.69 L4.84 784.48 A3.54218 2.08287 90 0 1
								 8.35 786.35 L8.82 790.33" class="st31"/>
				</g>
				<g id="shape521-393" transform="translate(25.155,-3.85338)">
					<title>Sheet.521</title>
					<path d="M1.75 778.6 L1.75 776.26 L0 775.25 L0 777.59 L1.75 778.6 ZM1.75 782.7 L1.75 780.36 L0 779.35 L0 781.69
								 L1.75 782.7 ZM1.75 786.79 L1.75 784.45 L0 783.44 L0 785.78 L1.75 786.79 ZM4.39 780.12 L4.39 777.78
								 L2.63 776.77 L2.63 779.11 L4.39 780.12 ZM4.39 784.22 L4.39 781.88 L2.63 780.87 L2.63 783.21 L4.39
								 784.22 ZM4.39 788.31 L4.39 785.97 L2.63 784.96 L2.63 787.3 L4.39 788.31 ZM7.02 789.83 L7.02 787.49
								 L5.26 786.48 L5.26 788.82 L7.02 789.83 ZM7.02 785.74 L7.02 783.4 L5.26 782.39 L5.26 784.73 L7.02
								 785.74 ZM7.02 781.64 L7.02 779.3 L5.26 778.29 L5.26 780.63 L7.02 781.64 ZM9.65 783.16 L9.65 780.82
								 L7.9 779.81 L7.9 782.15 L9.65 783.16 ZM9.65 787.26 L9.65 784.92 L7.9 783.91 L7.9 786.25 L9.65 787.26
								 ZM9.65 791.35 L9.65 789.01 L7.9 788 L7.9 790.34 L9.65 791.35 Z" class="st24"/>
				</g>
				<g id="shape522-395" transform="translate(25.155,-3.85338)">
					<title>Sheet.522</title>
					<path d="M10.16 788.72 L8.4 787.71 L7.9 788 L9.65 789.01 L9.65 791.35 L10.16 791.06 L10.16 788.72 ZM10.16 784.63
								 L8.4 783.61 L7.9 783.91 L9.65 784.92 L9.65 787.26 L10.16 786.97 L10.16 784.63 ZM10.16 780.53 L8.4
								 779.52 L7.9 779.81 L9.65 780.82 L9.65 783.16 L10.16 782.87 L10.16 780.53 ZM1.75 776.26 L1.75 778.6
								 L2.26 778.31 L2.26 775.97 L0.51 774.96 L0 775.25 L1.75 776.26 ZM7.53 787.2 L5.77 786.19 L5.26 786.48
								 L7.02 787.49 L7.02 789.83 L7.53 789.54 L7.53 787.2 ZM7.53 779.01 L5.77 778 L5.26 778.29 L7.02 779.3
								 L7.02 781.64 L7.53 781.35 L7.53 779.01 ZM7.02 783.4 L7.02 785.74 L7.53 785.45 L7.53 783.11 L5.77
								 782.09 L5.26 782.39 L7.02 783.4 ZM4.39 781.88 L4.39 784.22 L4.89 783.93 L4.89 781.59 L3.14 780.57
								 L2.63 780.87 L4.39 781.88 ZM2.26 780.07 L0.51 779.05 L0 779.35 L1.75 780.36 L1.75 782.7 L2.26 782.41
								 L2.26 780.07 ZM4.89 785.68 L3.14 784.67 L2.63 784.96 L4.39 785.97 L4.39 788.31 L4.89 788.02 L4.89
								 785.68 ZM2.26 784.16 L0.51 783.15 L0 783.44 L1.75 784.45 L1.75 786.79 L2.26 786.5 L2.26 784.16 ZM4.89
								 777.49 L3.14 776.48 L2.63 776.77 L4.39 777.78 L4.39 780.12 L4.89 779.83 L4.89 777.49 Z"
							class="st32"/>
				</g>
			</g>
			<g id="shape505-397">
				<text x="29.97" y="810.23" class="st15">Sensor <tspan x="20" dy="1.2em" class="st16">HoneyTrap </tspan><tspan
							x="23.84" dy="1.2em" class="st16">runs on</tspan><tspan class="st16">... </tspan><tspan x="24.94"
							dy="1.2em" class="st17">honeysrv</tspan></text>			</g>
		</g>
		<g id="group523-403" transform="translate(196.368,-144.09)">
			<title>User</title>
			<desc>Security Analyst</desc>
			<g id="shape524-404" transform="translate(-6.44072,0)">
				<title>Sheet.524</title>
				<path d="M13.83 744.48 A23.7001 22.6009 -90 0 0 0 765.21 L0.07 774.92 A7.70205 8.07667 -180 0 0 2.95 781.33 A2.96603
							 3.11029 -180 0 0 6.25 781.91 A3.96915 4.1622 -180 0 0 8.14 785.06 A56.306 53.6944 -90 0 0 33.47 791.35
							 A18.1982 17.3541 -90 0 0 41.63 789.07 A2.81359 2.95044 -180 0 0 44.9 789.64 A11.6303 12.196 -180 0 0
							 50.37 783.63 L50.37 766.49 A22.1557 23.2333 -180 0 0 36.58 746.18 L36.45 746.17 A14.9838 15.7126 -180
							 1 0 13.85 744.48 L13.83 744.48 Z" class="st33"/>
				<path d="M13.83 744.48 A23.7001 22.6009 -90 0 0 0 765.21 L0.07 774.92 A7.70205 8.07667 -180 0 0 2.95 781.33 A2.96603
							 3.11029 -180 0 0 6.25 781.91 A3.96915 4.1622 -180 0 0 8.14 785.06 A56.306 53.6944 -90 0 0 33.47 791.35
							 A18.1982 17.3541 -90 0 0 41.63 789.07 A2.81359 2.95044 -180 0 0 44.9 789.64 A11.6303 12.196 -180 0 0
							 50.37 783.63 L50.37 766.49 A22.1557 23.2333 -180 0 0 36.58 746.18 L36.45 746.17 A14.9838 15.7126 -180
							 1 0 13.85 744.48" class="st34"/>
			</g>
			<g id="shape525-407" transform="translate(0.0341057,-7.95808E-013)">
				<title>Sheet.525</title>
				<path d="M8.14 785.06 A53.6944 56.306 -180 0 0 33.47 791.35 A17.3541 18.1982 -180 0 0 41.63 789.07 A2.81359 2.95044
							 -180 0 0 44.9 789.64 A11.6303 12.196 -180 0 0 50.37 783.63 L50.37 766.49 A22.1557 23.2333 -180 0 0 36.58
							 746.18 L13.83 744.48 A22.6009 23.7001 -180 0 0 -0 765.21 L0.07 774.92 A7.70205 8.07667 -180 0 0 2.95
							 781.33 A2.96603 3.11029 -180 0 0 6.25 781.91 A3.96915 4.1622 -180 0 0 8.14 785.06 Z" class="st35"/>
				<path d="M8.14 785.06 A53.6944 56.306 -180 0 0 33.47 791.35 A17.3541 18.1982 -180 0 0 41.63 789.07 A2.81359 2.95044
							 -180 0 0 44.9 789.64 A11.6303 12.196 -180 0 0 50.37 783.63 L50.37 766.49 A22.1557 23.2333 -180 0 0 36.58
							 746.18M13.83 744.48 A22.6009 23.7001 -180 0 0 -0 765.21 L0.07 774.92 A7.70205 8.07667 -180 0 0 2.95
							 781.33 A2.96603 3.11029 -180 0 0 6.25 781.91 A3.96915 4.1622 -180 0 0 8.14 785.06" class="st36"/>
			</g>
			<g id="shape526-412" transform="translate(10.8973,-40.5749)">
				<title>Sheet.526</title>
				<ellipse cx="14.9838" cy="775.641" rx="14.9838" ry="15.7126" class="st37"/>
			</g>
			<g id="shape527-415" transform="translate(-775.679,660.331) rotate(-81.1625)">
				<title>Sheet.527</title>
				<path d="M0 791.35 A55.5612 55.1945 0 0 1 30.06 791.35" class="st38"/>
			</g>
			<g id="shape528-419" transform="translate(-746.637,843.82) rotate(-93.9726)">
				<title>Sheet.528</title>
				<path d="M-0 790.2 A107.577 106.767 -180 0 0 31.52 790.2" class="st38"/>
			</g>
			<g id="shape529-423" transform="translate(13.8941,-40.8395)">
				<title>Sheet.529</title>
				<path d="M-0 785.06 A15.012 15.7422 -180 0 0 22.63 786.74" class="st38"/>
			</g>
			<g id="shape530-427" transform="translate(0.0341057,0)">
				<title>Sheet.530</title>
				<path d="M13.83 744.48 A23.0589 24.1804 -180 0 0 0 765.21 L0.07 774.92 A7.70205 8.07667 -180 0 0 2.95 781.33 A2.96603
							 3.11029 -180 0 0 6.25 781.91 A3.96915 4.1622 -180 0 0 8.14 785.06 A53.6944 56.306 -180 0 0 33.47 791.35
							 A17.3541 18.1982 -180 0 0 41.63 789.07 A2.81359 2.95044 -180 0 0 44.9 789.64 A11.6303 12.196 -180 0
							 0 50.37 783.63 L50.37 768.08 A21.9347 23.0016 -180 0 0 36.58 746.18 L36.45 746.17 A14.9897 15.7187 -180
							 1 0 13.83 744.48" class="st39"/>
			</g>
			<g id="shape523-430">
				<text x="-13.73" y="806.16" class="st40">Security Analyst</text>			</g>
		</g>
		<g id="shape581-432" transform="translate(619.387,-719.949)">
			<title>Dynamic connector</title>
			<path d="M0 791.35 L-295.37 829.25" class="st41"/>
		</g>
		<g id="shape582-435" transform="translate(618.133,-737.487)">
			<title>Dynamic connector.582</title>
			<path d="M0 797.27 L-527 799.83" class="st41"/>
		</g>
		<g id="shape583-438" transform="translate(696.311,-693.294)">
			<title>Dynamic connector.583</title>
			<path d="M0 791.35 L-79.87 970.73" class="st41"/>
		</g>
		<g id="shape584-441" transform="translate(639.285,-700.858)">
			<title>Dynamic connector.584</title>
			<path d="M0 791.35 L-174.51 864.59" class="st41"/>
		</g>
		<g id="shape585-444" transform="translate(709.363,-692.573)">
			<title>Dynamic connector.585</title>
			<path d="M4.85 791.35 L9.55 1077.39" class="st41"/>
		</g>
		<g id="shape587-447" transform="translate(279.772,-650.524)">
			<title>Dynamic connector.587</title>
			<path d="M0 791.35 L-58.23 995.24" class="st41"/>
		</g>
		<g id="shape588-450" transform="translate(70.5146,-693.262)">
			<title>Dynamic connector.588</title>
			<path d="M0 791.35 L116.23 1050.51" class="st41"/>
		</g>
		<g id="shape589-453" transform="translate(569.023,-480.174)">
			<title>Dynamic connector.589</title>
			<path d="M0 791.35 L-322.25 869.95" class="st41"/>
		</g>
		<g id="shape590-456" transform="translate(413.321,-594.784)">
			<title>Dynamic connector.590</title>
			<path d="M0 791.35 L-166.55 954.45" class="st41"/>
		</g>
		<g id="shape591-459" transform="translate(682.885,-376.005)">
			<title>Dynamic connector.591</title>
			<path d="M0 791.21 L-436.12 777.09" class="st41"/>
		</g>
		<g id="group625-462" transform="translate(408.768,-300.69)">
			<title>Relational database</title>
			<desc>Elasticsearch Database</desc>
			<g id="shape626-463">
				<title>Sheet.626</title>
				<path d="M50.4 756.07 A25.2 15.12 -180 1 0 -0 756.07 L0 776.23 A25.2 15.12 -180 1 0 50.4 776.23 L50.4 756.07 Z"
						class="st1"/>
			</g>
			<g id="shape627-465" transform="translate(0,-20.16)">
				<title>Sheet.627</title>
				<ellipse cx="25.2" cy="776.234" rx="25.2" ry="15.12" class="st19"/>
			</g>
			<g id="shape628-468">
				<title>Sheet.628</title>
				<path d="M0 756.07 L0 776.23 A25.2 15.12 -180 1 0 50.4 776.23 L50.4 756.07 A25.2 15.12 0 1 1 0 756.07 Z"
						class="st42"/>
			</g>
			<g id="shape629-472">
				<title>Sheet.629</title>
				<path d="M50.4 756.07 A25.2 15.12 -180 1 0 -0 756.07 L0 776.23 A25.2 15.12 -180 1 0 50.4 776.23 L50.4 756.07"
						class="st7"/>
			</g>
			<g id="shape625-475">
				<text x="-30.4" y="806.16" class="st40">Elasticsearch Database</text>			</g>
		</g>
		<g id="shape630-477" transform="translate(408.768,-333.147)">
			<title>Dynamic connector.630</title>
			<path d="M0 791.35 L-162 744.7" class="st43"/>
		</g>
		<g id="group631-480" transform="translate(636.266,-162.09)">
			<title>Multi document</title>
			<g id="shape632-481" transform="translate(36,-36)">
				<title>Sheet.632</title>
				<path d="M0 784.6 L0 737.35 L72 737.35 L72 784.6 A27.375 27.375 -180 0 0 36 784.6 A27.375 27.375 0 0 1 0 784.6 Z"
						class="st44"/>
			</g>
			<g id="shape633-483" transform="translate(18,-18)">
				<title>Sheet.633</title>
				<path d="M0 784.6 L0 737.35 L72 737.35 L72 784.6 A27.375 27.375 -180 0 0 36 784.6 A27.375 27.375 0 0 1 0 784.6 Z"
						class="st44"/>
			</g>
			<g id="shape634-485">
				<title>Sheet.634</title>
				<desc>DSL Queries</desc>
				<path d="M0 784.6 L0 737.35 L72 737.35 L72 784.6 A27.375 27.375 -180 0 0 36 784.6 A27.375 27.375 0 0 1 0 784.6 Z"
						class="st44"/>
				<text x="6.7" y="761.2" class="st40">DSL Queries</text>			</g>
		</g>
		<g id="shape635-488" transform="translate(459.168,-318.085)">
			<title>Dynamic connector.635</title>
			<path d="M0 791.35 L213.1 857.35" class="st43"/>
		</g>
		<g id="group636-491" transform="translate(636.266,-40.4037)">
			<title>Web Page</title>
			<desc>FSM Plugin (Kibana)</desc>
			<g id="shape637-492" transform="translate(0,-15.7868)">
				<title>Sheet.637</title>
				<rect x="0" y="743.598" width="62.7653" height="47.7562" class="st45"/>
			</g>
			<g id="shape638-494" transform="translate(9.82414,-37.3426)">
				<title>Sheet.638</title>
				<path d="M0 780.71 L3 780.71 L3 778.8 L0 778.8 L0 780.71 ZM6.82 780.71 L24.01 780.71 L24.01 778.8 L6.82 778.8 L6.82
							 780.71 ZM6.82 786.03 L24.01 786.03 L24.01 784.12 L6.82 784.12 L6.82 786.03 ZM0 786.03 L3 786.03 L3 784.12
							 L0 784.12 L0 786.03 ZM0 791.35 L3 791.35 L3 789.44 L0 789.44 L0 791.35 ZM6.82 791.35 L24.01 791.35 L24.01
							 789.44 L6.82 789.44 L6.82 791.35 Z" class="st46"/>
			</g>
			<g id="shape639-497" transform="translate(1.36446,-0.543055)">
				<title>Sheet.639</title>
				<path d="M0 737.22 L60.04 737.22 L60.04 729.58 L0 729.58 L0 737.22 ZM70.64 772.84 A18.513 18.513 -180 1 0 33.61 772.84
							 A18.513 18.513 -180 1 0 70.64 772.84 Z" class="st45"/>
			</g>
			<g id="shape640-499" transform="translate(34.9739,-0.543057)">
				<title>Sheet.640</title>
				<path d="M1.94 781.09 L35.09 781.09" class="st43"/>
				<path d="M-0 772.84 L37.03 772.84" class="st43"/>
				<path d="M1.94 764.59 L35.09 764.59" class="st43"/>
				<path d="M28.99 772.84 A10.4791 18.513 -180 1 0 8.03 772.84 A10.4791 18.513 -180 1 0 28.99 772.84" class="st43"/>
				<path d="M18.51 791.35 L18.51 754.33" class="st43"/>
			</g>
			<g id="shape636-506">
				<text x="-12.52" y="806.16" class="st47">FSM Plugin (Kibana)</text>			</g>
		</g>
		<g id="shape644-508" transform="translate(665.066,-168.84)">
			<title>Dynamic connector.644</title>
			<path d="M7.2 791.35 L7.2 856.25" class="st43"/>
		</g>
		<g id="group657-511" transform="translate(474.468,-95.4898)">
			<title>Analyze</title>
			<desc>Detected Warnings from Queries</desc>
			<g id="shape658-512" transform="translate(0,-22.6449)">
				<title>Sheet.658</title>
				<path d="M35.16 750.95 L26.42 742 L0 742 L0 789 L20.2 789 L22.98 791.35 L38.7 791.35 L38.7 772.55 L35.18 770.68 L35.16
							 750.95 Z" class="st45"/>
			</g>
			<g id="shape659-514" transform="translate(6.53592,-32.3396)">
				<title>Sheet.659</title>
				<path d="M19.63 752.01 L28.09 760.67 L19.63 760.67 L19.63 752.01 ZM0 761.22 L8.72 761.22 L8.72 760.23 L0 760.23 L-0
							 761.22 ZM0 766.83 L8.72 766.83 L8.72 765.85 L0 765.85 L-0 766.83 ZM0 772.44 L22.09 772.44 L22.09 771.46
							 L0 771.46 L-0 772.44 ZM0 778.05 L22.09 778.05 L22.09 777.07 L0 777.07 L-0 778.05 ZM0 783.67 L22.09 783.67
							 L22.09 782.68 L0 782.68 L-0 783.67 ZM13.36 789.21 L14.34 789.21 L14.34 788.23 L13.36 788.23 L13.36 789.21
							 L13.36 789.21 ZM16.85 791.35 L25.84 791.35 L25.84 789.78 L16.85 789.78 L16.85 791.35 Z" class="st46"/>
			</g>
			<g id="shape660-517" transform="translate(19.7791,0)">
				<title>Sheet.660</title>
				<path d="M17.8 776.37 L28.31 765.84 C28.58 764.74 28.72 763.58 28.72 762.39 C28.72 754.44 22.29 748 14.36 748 C6.43
							 748 0 754.44 0 762.39 C0 770.34 6.43 776.79 14.36 776.79 C15.55 776.79 16.7 776.65 17.8 776.37 ZM22.23
							 770.28 C17.89 774.63 10.83 774.63 6.49 770.28 C2.15 765.93 2.15 758.86 6.49 754.51 C10.83 750.16 17.89
							 750.16 22.23 754.51 C26.57 758.86 26.57 765.93 22.23 770.28 ZM28.31 765.84 L17.74 776.44 C19.31 778.02
							 19.95 779.22 22.56 776.58 C26.46 772.64 23.57 775.99 25.04 777.48 C37.11 789.75 39.42 793.4 42.49 790.32
							 L42.49 790.32 C42.5 790.32 42.5 790.32 42.5 790.31 C42.5 790.31 42.51 790.3 42.51 790.3 C45.02 787.79
							 40.96 784.73 29.42 773.09 C27.94 771.61 24.58 774.52 28.52 770.61 C31.15 767.99 29.95 767.35 28.37 765.77
							 L28.31 765.84 Z" class="st45"/>
			</g>
			<g id="shape657-519">
				<text x="-16.73" y="806.16" class="st47">Detected  Warnings <tspan x="-0.71" dy="1.2em" class="st48">from Queries</tspan></text>			</g>
		</g>
		<g id="shape662-522" transform="translate(636.266,-85.2283)">
			<title>Dynamic connector.662</title>
			<path d="M0 791.35 L-113.33 751.12" class="st43"/>
		</g>
		<g id="shape663-525" transform="translate(474.468,-139.365)">
			<title>Dynamic connector.663</title>
			<path d="M0 791.35 L-113.97 762.86" class="st43"/>
		</g>
		<g id="shape673-528" transform="translate(616.359,-692.266)">
			<title>Cloud.50</title>
			<desc>Enterprise Hosts and Network (Corporate Network)</desc>
			<path d="M72.21 722.77 A30.7701 20.4396 0 0 1 126.5 722.51 A22.5846 15.0023 0 0 1 165.34 727.47 A22.7135 15.0879 0 0
						 1 192.16 735.08 A17.1339 11.3815 0 0 1 183.05 748.88 A19.3494 12.8532 0 0 1 168.21 772.61 A34.8432 23.1453
						 0 0 1 119.7 784.54 A43.8832 29.1503 0 0 1 58.81 781.65 A24.1497 16.0419 0 0 1 16.33 768.71 A17.4507 11.5919
						 0 0 1 16.4 745.57 A14.9312 9.91836 0 1 1 28.45 727.43 A23.4073 15.5488 0 0 1 72.21 722.77 Z" class="st49"/>
			<text x="22.47" y="747.99" class="st15">Enterprise Hosts and Network <tspan x="45.17" dy="1.2em" class="st48">(</tspan>Corporate Network)</text>		</g>
	</g>
</svg>
